<?xml version="1.0" standalone="no"?>
  <!DOCTYPE svg PUBLIC "-//W3C//DTD SVG 1.1//EN" "http://www.w3.org/Graphics/SVG/1.1/DTD/svg11.dtd" >
  <svg>
  <metadata>
  Created by font-carrier
  </metadata>
  <defs>
  <font id="Now-Medium" horiz-adv-x="1915" vert-adv-y="1915" >
    <font-face
      
      font-family="Now Medium"
      
      font-weight="400"
      
      font-stretch="normal"
      
      units-per-em="2048"
      
      ascent="2048"
      
      descent="-683"
      
    />
      <missing-glyph />

      

      
      <glyph glyph-name="uni41" unicode="&#x41;" d="M915 0L1099 0L659 1219L469 1219L28 0L213 0L305 268L824 268ZM358 424L565 1027L771 424Z"  horiz-adv-x="1128" vert-adv-y="2048"  />

      
      <glyph glyph-name="unic1" unicode="&#xc1;" d="M866 1610L687 1610L509 1320L619 1320ZM915 0L1099 0L659 1219L469 1219L28 0L213 0L305 268L824 268ZM358 424L565 1027L771 424Z"  horiz-adv-x="1128" vert-adv-y="2048"  />

      
      <glyph glyph-name="uni0102" unicode="&#x0102;" d="M564 1361C725 1361 840 1446 840 1610L742 1610C742 1524 669 1457 564 1457C460 1457 387 1524 387 1610L289 1610C289 1446 404 1361 564 1361ZM915 0L1099 0L659 1219L469 1219L28 0L213 0L305 268L824 268ZM358 424L565 1027L771 424Z"  horiz-adv-x="1128" vert-adv-y="2048"  />

      
      <glyph glyph-name="unic2" unicode="&#xc2;" d="M566 1520L688 1320L814 1320L642 1610L485 1610L315 1320L441 1320ZM915 0L1099 0L659 1219L469 1219L28 0L213 0L305 268L824 268ZM358 424L565 1027L771 424Z"  horiz-adv-x="1128" vert-adv-y="2048"  />

      
      <glyph glyph-name="unic4" unicode="&#xc4;" d="M398 1438C457 1438 507 1487 507 1545C507 1606 457 1653 398 1653C340 1653 290 1606 290 1545C290 1487 340 1438 398 1438ZM730 1438C788 1438 838 1487 838 1545C838 1606 788 1653 730 1653C671 1653 622 1606 622 1545C622 1487 671 1438 730 1438ZM915 0L1099 0L659 1219L469 1219L28 0L213 0L305 268L824 268ZM358 424L565 1027L771 424Z"  horiz-adv-x="1128" vert-adv-y="2048"  />

      
      <glyph glyph-name="unic0" unicode="&#xc0;" d="M619 1320L441 1610L262 1610L509 1320ZM915 0L1099 0L659 1219L469 1219L28 0L213 0L305 268L824 268ZM358 424L565 1027L771 424Z"  horiz-adv-x="1128" vert-adv-y="2048"  />

      
      <glyph glyph-name="uni0100" unicode="&#x0100;" d="M790 1481L338 1481L338 1371L790 1371ZM915 0L1099 0L659 1219L469 1219L28 0L213 0L305 268L824 268ZM358 424L565 1027L771 424Z"  horiz-adv-x="1128" vert-adv-y="2048"  />

      
      <glyph glyph-name="uni0104" unicode="&#x0104;" d="M1141-256C1107-305 1052-335 993-335C926-335 890-291 890-229C890-121 984-61 1099 0L659 1219L469 1219L28 0L213 0L305 268L824 268L915 0L968 0C859-63 779-136 779-243C779-348 852-414 967-421C1052-425 1134-396 1196-333ZM358 424L565 1027L771 424Z"  horiz-adv-x="1128" vert-adv-y="2048"  />

      
      <glyph glyph-name="unic5" unicode="&#xc5;" d="M566 1277C662 1277 742 1358 742 1455C742 1552 662 1632 566 1632C468 1632 387 1552 387 1455C387 1358 468 1277 566 1277ZM566 1554C618 1554 661 1507 661 1455C661 1399 618 1358 566 1358C512 1358 470 1399 470 1455C470 1507 512 1554 566 1554ZM915 0L1099 0L659 1219L469 1219L28 0L213 0L305 268L824 268ZM358 424L565 1027L771 424Z"  horiz-adv-x="1128" vert-adv-y="2048"  />

      
      <glyph glyph-name="unic3" unicode="&#xc3;" d="M460 1507C523 1507 551 1377 671 1377C789 1377 851 1480 851 1610L740 1610C740 1530 716 1487 670 1487C605 1487 573 1618 457 1618C344 1618 277 1518 277 1385L390 1385C390 1453 413 1507 460 1507ZM915 0L1099 0L659 1219L469 1219L28 0L213 0L305 268L824 268ZM358 424L565 1027L771 424Z"  horiz-adv-x="1128" vert-adv-y="2048"  />

      
      <glyph glyph-name="unic6" unicode="&#xc6;" d="M1394 1058L1394 1219L514 1219L24 0L217 0L326 280L710 280L710 0L1394 0L1394 161L876 161L876 532L1326 532L1326 688L876 688L876 1058ZM384 431L633 1073L710 1073L710 431Z"  horiz-adv-x="1491" vert-adv-y="2048"  />

      
      <glyph glyph-name="uni42" unicode="&#x42;" d="M823 618C925 667 991 760 991 890C991 1088 837 1219 646 1219L182 1219L182 0L689 0C879 0 1031 129 1031 325C1031 473 946 573 823 618ZM820 875C820 768 734 687 627 687L351 687L351 1056L627 1056C734 1056 820 981 820 875ZM666 163L351 163L351 532L666 532C774 532 859 451 859 345C859 240 774 163 666 163Z"  horiz-adv-x="1138" vert-adv-y="2048"  />

      
      <glyph glyph-name="uni43" unicode="&#x43;" d="M712-16C947-16 1152 114 1259 306L1112 387C1035 247 886 154 712 154C458 154 255 355 255 610C255 864 458 1065 712 1065C886 1065 1035 972 1112 832L1259 913C1152 1105 947 1235 712 1235C366 1235 86 956 86 610C86 263 366-16 712-16Z"  horiz-adv-x="1316" vert-adv-y="2048"  />

      
      <glyph glyph-name="uni0106" unicode="&#x0106;" d="M603 1320L713 1320L960 1610L781 1610ZM712-16C947-16 1152 114 1259 306L1112 387C1035 247 886 154 712 154C458 154 255 355 255 610C255 864 458 1065 712 1065C886 1065 1035 972 1112 832L1259 913C1152 1105 947 1235 712 1235C366 1235 86 956 86 610C86 263 366-16 712-16Z"  horiz-adv-x="1316" vert-adv-y="2048"  />

      
      <glyph glyph-name="uni010C" unicode="&#x010C;" d="M578 1320L736 1320L907 1610L781 1610L658 1411L534 1610L409 1610ZM712-16C947-16 1152 114 1259 306L1112 387C1035 247 886 154 712 154C458 154 255 355 255 610C255 864 458 1065 712 1065C886 1065 1035 972 1112 832L1259 913C1152 1105 947 1235 712 1235C366 1235 86 956 86 610C86 263 366-16 712-16Z"  horiz-adv-x="1316" vert-adv-y="2048"  />

      
      <glyph glyph-name="unic7" unicode="&#xc7;" d="M712 154C458 154 255 355 255 610C255 864 458 1065 712 1065C886 1065 1035 972 1112 832L1259 913C1152 1105 947 1235 712 1235C366 1235 86 956 86 610C86 301 308 46 602-6L529-145L600-189C683-154 749-181 749-251C749-297 713-334 668-334C630-334 582-310 562-279L479-310C508-373 591-423 668-423C764-423 839-347 839-251C839-149 751-83 642-103L687-16L712-16C947-16 1152 114 1259 306L1112 387C1035 247 886 154 712 154Z"  horiz-adv-x="1316" vert-adv-y="2048"  />

      
      <glyph glyph-name="uni010A" unicode="&#x010A;" d="M658 1438C717 1438 767 1487 767 1545C767 1606 717 1653 658 1653C600 1653 550 1606 550 1545C550 1487 600 1438 658 1438ZM712-16C947-16 1152 114 1259 306L1112 387C1035 247 886 154 712 154C458 154 255 355 255 610C255 864 458 1065 712 1065C886 1065 1035 972 1112 832L1259 913C1152 1105 947 1235 712 1235C366 1235 86 956 86 610C86 263 366-16 712-16Z"  horiz-adv-x="1316" vert-adv-y="2048"  />

      
      <glyph glyph-name="uni44" unicode="&#x44;" d="M182 0L512 0C932 0 1144 273 1144 610C1144 946 932 1219 512 1219L182 1219ZM351 163L351 1056L510 1056C841 1056 973 866 973 610C973 353 841 163 510 163Z"  horiz-adv-x="1234" vert-adv-y="2048"  />

      
      <glyph glyph-name="unid0" unicode="&#xd0;" d="M512 1219L182 1219L182 675L97 675L97 545L182 545L182 0L512 0C932 0 1144 273 1144 610C1144 946 932 1219 512 1219ZM510 163L351 163L351 545L597 545L597 675L351 675L351 1056L510 1056C841 1056 973 866 973 610C973 353 841 163 510 163Z"  horiz-adv-x="1234" vert-adv-y="2048"  />

      
      <glyph glyph-name="uni010E" unicode="&#x010E;" d="M538 1320L696 1320L867 1610L741 1610L618 1411L494 1610L369 1610ZM182 0L512 0C932 0 1144 273 1144 610C1144 946 932 1219 512 1219L182 1219ZM351 163L351 1056L510 1056C841 1056 973 866 973 610C973 353 841 163 510 163Z"  horiz-adv-x="1234" vert-adv-y="2048"  />

      
      <glyph glyph-name="uni0110" unicode="&#x0110;" d="M512 1219L182 1219L182 675L97 675L97 545L182 545L182 0L512 0C932 0 1144 273 1144 610C1144 946 932 1219 512 1219ZM510 163L351 163L351 545L597 545L597 675L351 675L351 1056L510 1056C841 1056 973 866 973 610C973 353 841 163 510 163Z"  horiz-adv-x="1234" vert-adv-y="2048"  />

      
      <glyph glyph-name="uni45" unicode="&#x45;" d="M867 1060L867 1219L182 1219L182 0L867 0L867 159L353 159L353 530L799 530L799 689L353 689L353 1060Z"  horiz-adv-x="963" vert-adv-y="2048"  />

      
      <glyph glyph-name="unic9" unicode="&#xc9;" d="M784 1610L605 1610L427 1320L537 1320ZM867 1060L867 1219L182 1219L182 0L867 0L867 159L353 159L353 530L799 530L799 689L353 689L353 1060Z"  horiz-adv-x="963" vert-adv-y="2048"  />

      
      <glyph glyph-name="uni011A" unicode="&#x011A;" d="M560 1320L731 1610L605 1610L482 1411L358 1610L233 1610L402 1320ZM867 1060L867 1219L182 1219L182 0L867 0L867 159L353 159L353 530L799 530L799 689L353 689L353 1060Z"  horiz-adv-x="963" vert-adv-y="2048"  />

      
      <glyph glyph-name="unica" unicode="&#xca;" d="M483 1520L605 1320L731 1320L559 1610L402 1610L232 1320L358 1320ZM867 1060L867 1219L182 1219L182 0L867 0L867 159L353 159L353 530L799 530L799 689L353 689L353 1060Z"  horiz-adv-x="963" vert-adv-y="2048"  />

      
      <glyph glyph-name="unicb" unicode="&#xcb;" d="M315 1438C374 1438 424 1487 424 1545C424 1606 374 1653 315 1653C257 1653 207 1606 207 1545C207 1487 257 1438 315 1438ZM647 1438C705 1438 755 1487 755 1545C755 1606 705 1653 647 1653C588 1653 539 1606 539 1545C539 1487 588 1438 647 1438ZM867 1060L867 1219L182 1219L182 0L867 0L867 159L353 159L353 530L799 530L799 689L353 689L353 1060Z"  horiz-adv-x="963" vert-adv-y="2048"  />

      
      <glyph glyph-name="uni0116" unicode="&#x0116;" d="M482 1438C541 1438 591 1487 591 1545C591 1606 541 1653 482 1653C424 1653 374 1606 374 1545C374 1487 424 1438 482 1438ZM867 1060L867 1219L182 1219L182 0L867 0L867 159L353 159L353 530L799 530L799 689L353 689L353 1060Z"  horiz-adv-x="963" vert-adv-y="2048"  />

      
      <glyph glyph-name="unic8" unicode="&#xc8;" d="M537 1320L359 1610L180 1610L427 1320ZM867 1060L867 1219L182 1219L182 0L867 0L867 159L353 159L353 530L799 530L799 689L353 689L353 1060Z"  horiz-adv-x="963" vert-adv-y="2048"  />

      
      <glyph glyph-name="uni0112" unicode="&#x0112;" d="M708 1481L256 1481L256 1371L708 1371ZM867 1060L867 1219L182 1219L182 0L867 0L867 159L353 159L353 530L799 530L799 689L353 689L353 1060Z"  horiz-adv-x="963" vert-adv-y="2048"  />

      
      <glyph glyph-name="uni0118" unicode="&#x0118;" d="M909-256C875-305 820-335 761-335C694-335 658-291 658-229C658-121 752-61 867 0L867 159L353 159L353 530L799 530L799 689L353 689L353 1060L867 1060L867 1219L182 1219L182 0L736 0C627-63 547-136 547-243C547-348 620-414 735-421C820-425 902-396 964-333Z"  horiz-adv-x="963" vert-adv-y="2048"  />

      
      <glyph glyph-name="uni46" unicode="&#x46;" d="M867 1060L867 1219L182 1219L182 0L353 0L353 530L799 530L799 689L353 689L353 1060Z"  horiz-adv-x="922" vert-adv-y="2048"  />

      
      <glyph glyph-name="uni47" unicode="&#x47;" d="M710 654L710 504L1156 504C1109 301 930 154 712 154C458 154 255 355 255 610C255 864 458 1065 712 1065C886 1065 1035 972 1112 832L1259 913C1152 1105 947 1235 712 1235C366 1235 86 956 86 610C86 263 366-16 712-16C1058-16 1338 263 1338 610L1338 654Z"  horiz-adv-x="1409" vert-adv-y="2048"  />

      
      <glyph glyph-name="uni011E" unicode="&#x011E;" d="M704 1361C865 1361 980 1446 980 1610L882 1610C882 1524 809 1457 704 1457C600 1457 527 1524 527 1610L429 1610C429 1446 544 1361 704 1361ZM710 654L710 504L1156 504C1109 301 930 154 712 154C458 154 255 355 255 610C255 864 458 1065 712 1065C886 1065 1035 972 1112 832L1259 913C1152 1105 947 1235 712 1235C366 1235 86 956 86 610C86 263 366-16 712-16C1058-16 1338 263 1338 610L1338 654Z"  horiz-adv-x="1409" vert-adv-y="2048"  />

      
      <glyph glyph-name="uni0122" unicode="&#x0122;" d="M710 654L710 504L1156 504C1109 301 930 154 712 154C458 154 255 355 255 610C255 864 458 1065 712 1065C886 1065 1035 972 1112 832L1259 913C1152 1105 947 1235 712 1235C366 1235 86 956 86 610C86 263 366-16 712-16C1058-16 1338 263 1338 610L1338 654ZM493-392L595-392L794-100L613-100Z"  horiz-adv-x="1409" vert-adv-y="2048"  />

      
      <glyph glyph-name="uni0120" unicode="&#x0120;" d="M704 1438C763 1438 813 1487 813 1545C813 1606 763 1653 704 1653C646 1653 596 1606 596 1545C596 1487 646 1438 704 1438ZM710 654L710 504L1156 504C1109 301 930 154 712 154C458 154 255 355 255 610C255 864 458 1065 712 1065C886 1065 1035 972 1112 832L1259 913C1152 1105 947 1235 712 1235C366 1235 86 956 86 610C86 263 366-16 712-16C1058-16 1338 263 1338 610L1338 654Z"  horiz-adv-x="1409" vert-adv-y="2048"  />

      
      <glyph glyph-name="uni48" unicode="&#x48;" d="M971 1219L971 692L353 692L353 1219L182 1219L182 0L353 0L353 528L971 528L971 0L1142 0L1142 1219Z"  horiz-adv-x="1324" vert-adv-y="2048"  />

      
      <glyph glyph-name="uni0126" unicode="&#x0126;" d="M1250 1021L1142 1021L1142 1219L971 1219L971 1021L353 1021L353 1219L182 1219L182 1021L75 1021L75 924L182 924L182 0L353 0L353 528L971 528L971 0L1142 0L1142 924L1250 924ZM971 692L353 692L353 924L971 924Z"  horiz-adv-x="1324" vert-adv-y="2048"  />

      
      <glyph glyph-name="uni49" unicode="&#x49;" d="M182 0L353 0L353 1219L182 1219Z"  horiz-adv-x="534" vert-adv-y="2048"  />

      
      <glyph glyph-name="unicd" unicode="&#xcd;" d="M212 1320L322 1320L569 1610L390 1610ZM182 0L353 0L353 1219L182 1219Z"  horiz-adv-x="534" vert-adv-y="2048"  />

      
      <glyph glyph-name="unice" unicode="&#xce;" d="M17 1320L143 1320L268 1520L390 1320L516 1320L344 1610L187 1610ZM182 0L353 0L353 1219L182 1219Z"  horiz-adv-x="534" vert-adv-y="2048"  />

      
      <glyph glyph-name="unicf" unicode="&#xcf;" d="M101 1438C160 1438 210 1487 210 1545C210 1606 160 1653 101 1653C43 1653-7 1606-7 1545C-7 1487 43 1438 101 1438ZM433 1438C491 1438 541 1487 541 1545C541 1606 491 1653 433 1653C374 1653 325 1606 325 1545C325 1487 374 1438 433 1438ZM182 0L353 0L353 1219L182 1219Z"  horiz-adv-x="534" vert-adv-y="2048"  />

      
      <glyph glyph-name="uni0130" unicode="&#x0130;" d="M267 1438C326 1438 376 1487 376 1545C376 1606 326 1653 267 1653C209 1653 159 1606 159 1545C159 1487 209 1438 267 1438ZM182 0L353 0L353 1219L182 1219Z"  horiz-adv-x="534" vert-adv-y="2048"  />

      
      <glyph glyph-name="unicc" unicode="&#xcc;" d="M212 1320L322 1320L144 1610L-35 1610ZM182 0L353 0L353 1219L182 1219Z"  horiz-adv-x="534" vert-adv-y="2048"  />

      
      <glyph glyph-name="uni012A" unicode="&#x012A;" d="M41 1371L493 1371L493 1481L41 1481ZM182 0L353 0L353 1219L182 1219Z"  horiz-adv-x="534" vert-adv-y="2048"  />

      
      <glyph glyph-name="uni012E" unicode="&#x012E;" d="M394-256C360-305 305-335 246-335C179-335 143-291 143-229C143-121 237-61 352 0L353 0L353 1219L182 1219L182 0L221 0C112-63 32-136 32-243C32-348 105-414 220-421C305-425 387-396 449-333Z"  horiz-adv-x="534" vert-adv-y="2048"  />

      
      <glyph glyph-name="uni4a" unicode="&#x4a;" d="M710 1219L121 1219L121 1056L539 1056L539 319C539 214 472 147 380 147C296 147 233 204 224 294L52 252C72 85 193-16 380-16C583-16 710 104 710 299Z"  horiz-adv-x="879" vert-adv-y="2048"  />

      
      <glyph glyph-name="uni4b" unicode="&#x4b;" d="M919 0L1154 0L573 662L1121 1219L891 1219L428 740L353 740L353 1219L182 1219L182 0L353 0L353 584L428 584Z"  horiz-adv-x="1169" vert-adv-y="2048"  />

      
      <glyph glyph-name="uni0136" unicode="&#x0136;" d="M573 662L1121 1219L891 1219L428 740L353 740L353 1219L182 1219L182 0L353 0L353 584L428 584L919 0L1154 0ZM379-392L481-392L680-100L499-100Z"  horiz-adv-x="1169" vert-adv-y="2048"  />

      
      <glyph glyph-name="uni4c" unicode="&#x4c;" d="M353 163L353 1219L182 1219L182 0L791 0L791 163Z"  horiz-adv-x="817" vert-adv-y="2048"  />

      
      <glyph glyph-name="uni0139" unicode="&#x0139;" d="M569 1610L390 1610L212 1320L322 1320ZM353 163L353 1219L182 1219L182 0L791 0L791 163Z"  horiz-adv-x="817" vert-adv-y="2048"  />

      
      <glyph glyph-name="uni013D" unicode="&#x013D;" d="M345 1320L516 1610L390 1610L267 1411L143 1610L18 1610L187 1320ZM353 163L353 1219L182 1219L182 0L791 0L791 163Z"  horiz-adv-x="817" vert-adv-y="2048"  />

      
      <glyph glyph-name="uni013B" unicode="&#x013B;" d="M353 163L353 1219L182 1219L182 0L791 0L791 163ZM275-392L377-392L576-100L395-100Z"  horiz-adv-x="817" vert-adv-y="2048"  />

      
      <glyph glyph-name="uni0141" unicode="&#x0141;" d="M353 163L353 573L502 730L502 897L353 740L353 1219L182 1219L182 560L114 488L114 322L182 394L182 0L791 0L791 163Z"  horiz-adv-x="817" vert-adv-y="2048"  />

      
      <glyph glyph-name="uni4d" unicode="&#x4d;" d="M1253 1219L807 217L364 1219L182 1219L182 0L353 0L353 886L744 0L868 0L1264 889L1264 0L1434 0L1434 1219Z"  horiz-adv-x="1616" vert-adv-y="2048"  />

      
      <glyph glyph-name="uni4e" unicode="&#x4e;" d="M1056 1219L1056 276L349 1219L182 1219L182 0L353 0L353 944L1058 0L1226 0L1226 1219Z"  horiz-adv-x="1408" vert-adv-y="2048"  />

      
      <glyph glyph-name="uni0143" unicode="&#x0143;" d="M1005 1610L826 1610L648 1320L758 1320ZM1056 1219L1056 276L349 1219L182 1219L182 0L353 0L353 944L1058 0L1226 0L1226 1219Z"  horiz-adv-x="1408" vert-adv-y="2048"  />

      
      <glyph glyph-name="uni0147" unicode="&#x0147;" d="M781 1320L952 1610L826 1610L703 1411L579 1610L454 1610L623 1320ZM1056 1219L1056 276L349 1219L182 1219L182 0L353 0L353 944L1058 0L1226 0L1226 1219Z"  horiz-adv-x="1408" vert-adv-y="2048"  />

      
      <glyph glyph-name="uni0145" unicode="&#x0145;" d="M1056 1219L1056 276L349 1219L182 1219L182 0L353 0L353 944L1058 0L1226 0L1226 1219ZM492-392L594-392L793-100L612-100Z"  horiz-adv-x="1408" vert-adv-y="2048"  />

      
      <glyph glyph-name="uni014A" unicode="&#x014A;" d="M1056 1219L1056 276L349 1219L182 1219L182 0L353 0L353 944L1058 0L1058-155C1058-268 1009-283 949-282L949-417C1128-419 1226-357 1226-166L1226 1219Z"  horiz-adv-x="1408" vert-adv-y="2048"  />

      
      <glyph glyph-name="unid1" unicode="&#xd1;" d="M599 1507C662 1507 690 1377 810 1377C928 1377 990 1480 990 1610L879 1610C879 1530 855 1487 809 1487C744 1487 712 1618 596 1618C483 1618 416 1518 416 1385L529 1385C529 1453 552 1507 599 1507ZM1056 1219L1056 276L349 1219L182 1219L182 0L353 0L353 944L1058 0L1226 0L1226 1219Z"  horiz-adv-x="1408" vert-adv-y="2048"  />

      
      <glyph glyph-name="uni4f" unicode="&#x4f;" d="M712-16C1058-16 1338 263 1338 610C1338 956 1058 1235 712 1235C366 1235 86 956 86 610C86 263 366-16 712-16ZM712 154C458 154 255 355 255 610C255 864 458 1065 712 1065C966 1065 1168 864 1168 610C1168 355 966 154 712 154Z"  horiz-adv-x="1424" vert-adv-y="2048"  />

      
      <glyph glyph-name="unid3" unicode="&#xd3;" d="M657 1320L767 1320L1014 1610L835 1610ZM712-16C1058-16 1338 263 1338 610C1338 956 1058 1235 712 1235C366 1235 86 956 86 610C86 263 366-16 712-16ZM712 154C458 154 255 355 255 610C255 864 458 1065 712 1065C966 1065 1168 864 1168 610C1168 355 966 154 712 154Z"  horiz-adv-x="1424" vert-adv-y="2048"  />

      
      <glyph glyph-name="unid4" unicode="&#xd4;" d="M462 1320L588 1320L713 1520L835 1320L961 1320L789 1610L632 1610ZM712-16C1058-16 1338 263 1338 610C1338 956 1058 1235 712 1235C366 1235 86 956 86 610C86 263 366-16 712-16ZM712 154C458 154 255 355 255 610C255 864 458 1065 712 1065C966 1065 1168 864 1168 610C1168 355 966 154 712 154Z"  horiz-adv-x="1424" vert-adv-y="2048"  />

      
      <glyph glyph-name="unid6" unicode="&#xd6;" d="M545 1438C604 1438 654 1487 654 1545C654 1606 604 1653 545 1653C487 1653 437 1606 437 1545C437 1487 487 1438 545 1438ZM877 1438C935 1438 985 1487 985 1545C985 1606 935 1653 877 1653C818 1653 769 1606 769 1545C769 1487 818 1438 877 1438ZM712-16C1058-16 1338 263 1338 610C1338 956 1058 1235 712 1235C366 1235 86 956 86 610C86 263 366-16 712-16ZM712 154C458 154 255 355 255 610C255 864 458 1065 712 1065C966 1065 1168 864 1168 610C1168 355 966 154 712 154Z"  horiz-adv-x="1424" vert-adv-y="2048"  />

      
      <glyph glyph-name="unid2" unicode="&#xd2;" d="M657 1320L767 1320L589 1610L410 1610ZM712-16C1058-16 1338 263 1338 610C1338 956 1058 1235 712 1235C366 1235 86 956 86 610C86 263 366-16 712-16ZM712 154C458 154 255 355 255 610C255 864 458 1065 712 1065C966 1065 1168 864 1168 610C1168 355 966 154 712 154Z"  horiz-adv-x="1424" vert-adv-y="2048"  />

      
      <glyph glyph-name="uni0150" unicode="&#x0150;" d="M517 1320L626 1320L871 1610L693 1610ZM798 1320L907 1320L1152 1610L974 1610ZM712-16C1058-16 1338 263 1338 610C1338 956 1058 1235 712 1235C366 1235 86 956 86 610C86 263 366-16 712-16ZM712 154C458 154 255 355 255 610C255 864 458 1065 712 1065C966 1065 1168 864 1168 610C1168 355 966 154 712 154Z"  horiz-adv-x="1424" vert-adv-y="2048"  />

      
      <glyph glyph-name="uni014C" unicode="&#x014C;" d="M486 1371L938 1371L938 1481L486 1481ZM712-16C1058-16 1338 263 1338 610C1338 956 1058 1235 712 1235C366 1235 86 956 86 610C86 263 366-16 712-16ZM712 154C458 154 255 355 255 610C255 864 458 1065 712 1065C966 1065 1168 864 1168 610C1168 355 966 154 712 154Z"  horiz-adv-x="1424" vert-adv-y="2048"  />

      
      <glyph glyph-name="unid8" unicode="&#xd8;" d="M1124 1081L1228 1230L1112 1301L1013 1159C923 1207 821 1235 712 1235C366 1235 86 956 86 610C86 421 169 252 300 138L195-13L313-83L413 60C501 11 603-16 712-16C1058-16 1338 263 1338 610C1338 798 1255 966 1124 1081ZM255 610C255 864 458 1065 712 1065C785 1065 854 1048 915 1019L398 277C310 360 255 478 255 610ZM712 154C639 154 571 170 510 200L1027 941C1114 859 1168 741 1168 610C1168 355 966 154 712 154Z"  horiz-adv-x="1424" vert-adv-y="2048"  />

      
      <glyph glyph-name="unid5" unicode="&#xd5;" d="M819 1377C937 1377 999 1480 999 1610L888 1610C888 1530 864 1487 818 1487C753 1487 721 1618 605 1618C492 1618 425 1518 425 1385L538 1385C538 1453 561 1507 608 1507C671 1507 699 1377 819 1377ZM712-16C1058-16 1338 263 1338 610C1338 956 1058 1235 712 1235C366 1235 86 956 86 610C86 263 366-16 712-16ZM712 154C458 154 255 355 255 610C255 864 458 1065 712 1065C966 1065 1168 864 1168 610C1168 355 966 154 712 154Z"  horiz-adv-x="1424" vert-adv-y="2048"  />

      
      <glyph glyph-name="uni0152" unicode="&#x0152;" d="M1578 1062L1578 1219L919 1219L919 1199C854 1223 786 1235 712 1235C366 1235 86 956 86 610C86 263 366-16 712-16C786-16 854-4 919 20L919 0L1578 0L1578 157L1065 157L1065 531L1509 531L1509 688L1065 688L1065 1062ZM713 149C456 149 252 353 252 610C252 866 456 1070 713 1070C787 1070 858 1052 919 1020L919 199C858 167 787 149 713 149Z"  horiz-adv-x="1674" vert-adv-y="2048"  />

      
      <glyph glyph-name="uni50" unicode="&#x50;" d="M641 1219L182 1219L182 0L353 0L353 528L641 528C842 528 988 678 988 871C988 1063 842 1219 641 1219ZM621 682L353 682L353 1060L621 1060C735 1060 820 984 820 869C820 750 735 682 621 682Z"  horiz-adv-x="1047" vert-adv-y="2048"  />

      
      <glyph glyph-name="unide" unicode="&#xde;" d="M639 1048L347 1048L347 1219L182 1219L182 0L347 0L347 357L639 357C830 357 985 508 985 698C985 892 830 1048 639 1048ZM628 515L347 515L347 890L628 890C740 890 821 813 821 702C821 592 740 515 628 515Z"  horiz-adv-x="1042" vert-adv-y="2048"  />

      
      <glyph glyph-name="uni51" unicode="&#x51;" d="M1346 144L1186 144L1089 110C1240 224 1338 405 1338 610C1338 956 1058 1235 712 1235C366 1235 86 956 86 610C86 263 366-16 712-16C761-16 808-10 854 0L1346 0ZM255 610C255 864 458 1065 712 1065C966 1065 1168 864 1168 610C1168 355 966 154 712 154C458 154 255 355 255 610Z"  horiz-adv-x="1459" vert-adv-y="2048"  />

      
      <glyph glyph-name="uni52" unicode="&#x52;" d="M716 543C875 571 988 705 988 870C988 1065 841 1219 641 1219L182 1219L182 0L353 0L353 535L538 535L874 0L1070 0ZM353 689L353 1056L625 1056C739 1056 820 982 820 872C820 762 739 689 625 689Z"  horiz-adv-x="1114" vert-adv-y="2048"  />

      
      <glyph glyph-name="uni0154" unicode="&#x0154;" d="M861 1610L682 1610L504 1320L614 1320ZM716 543C875 571 988 705 988 870C988 1065 841 1219 641 1219L182 1219L182 0L353 0L353 535L538 535L874 0L1070 0ZM353 689L353 1056L625 1056C739 1056 820 982 820 872C820 762 739 689 625 689Z"  horiz-adv-x="1114" vert-adv-y="2048"  />

      
      <glyph glyph-name="uni0158" unicode="&#x0158;" d="M638 1320L809 1610L683 1610L560 1411L436 1610L311 1610L480 1320ZM716 543C875 571 988 705 988 870C988 1065 841 1219 641 1219L182 1219L182 0L353 0L353 535L538 535L874 0L1070 0ZM353 689L353 1056L625 1056C739 1056 820 982 820 872C820 762 739 689 625 689Z"  horiz-adv-x="1114" vert-adv-y="2048"  />

      
      <glyph glyph-name="uni0156" unicode="&#x0156;" d="M716 543C875 571 988 705 988 870C988 1065 841 1219 641 1219L182 1219L182 0L353 0L353 535L538 535L874 0L1070 0ZM353 689L353 1056L625 1056C739 1056 820 982 820 872C820 762 739 689 625 689ZM349-392L451-392L650-100L469-100Z"  horiz-adv-x="1114" vert-adv-y="2048"  />

      
      <glyph glyph-name="uni53" unicode="&#x53;" d="M484-16C699-16 870 113 870 332C870 748 289 651 289 917C289 1020 372 1072 473 1072C568 1072 643 1026 705 947L824 1058C754 1159 623 1235 471 1235C279 1235 118 1112 118 904C118 510 700 601 700 326C700 215 608 151 485 151C357 151 260 221 218 329L68 238C136 87 294-16 484-16Z"  horiz-adv-x="948" vert-adv-y="2048"  />

      
      <glyph glyph-name="uni015A" unicode="&#x015A;" d="M419 1320L529 1320L776 1610L597 1610ZM484-16C699-16 870 113 870 332C870 748 289 651 289 917C289 1020 372 1072 473 1072C568 1072 643 1026 705 947L824 1058C754 1159 623 1235 471 1235C279 1235 118 1112 118 904C118 510 700 601 700 326C700 215 608 151 485 151C357 151 260 221 218 329L68 238C136 87 294-16 484-16Z"  horiz-adv-x="948" vert-adv-y="2048"  />

      
      <glyph glyph-name="uni0160" unicode="&#x0160;" d="M394 1320L552 1320L723 1610L597 1610L474 1411L350 1610L225 1610ZM484-16C699-16 870 113 870 332C870 748 289 651 289 917C289 1020 372 1072 473 1072C568 1072 643 1026 705 947L824 1058C754 1159 623 1235 471 1235C279 1235 118 1112 118 904C118 510 700 601 700 326C700 215 608 151 485 151C357 151 260 221 218 329L68 238C136 87 294-16 484-16Z"  horiz-adv-x="948" vert-adv-y="2048"  />

      
      <glyph glyph-name="uni015E" unicode="&#x015E;" d="M870 332C870 748 289 651 289 917C289 1020 372 1072 473 1072C568 1072 643 1026 705 947L824 1058C754 1159 623 1235 471 1235C279 1235 118 1112 118 904C118 510 700 601 700 326C700 215 608 151 485 151C357 151 260 221 218 329L68 238C127 106 256 11 414-11L344-145L415-189C498-154 564-181 564-251C564-297 528-334 483-334C445-334 397-310 377-279L294-310C323-373 406-423 483-423C579-423 654-347 654-251C654-149 566-83 457-103L502-16C708-9 870 119 870 332Z"  horiz-adv-x="948" vert-adv-y="2048"  />

      
      <glyph glyph-name="uni0218" unicode="&#x0218;" d="M484-16C699-16 870 113 870 332C870 748 289 651 289 917C289 1020 372 1072 473 1072C568 1072 643 1026 705 947L824 1058C754 1159 623 1235 471 1235C279 1235 118 1112 118 904C118 510 700 601 700 326C700 215 608 151 485 151C357 151 260 221 218 329L68 238C136 87 294-16 484-16ZM263-392L365-392L564-100L383-100Z"  horiz-adv-x="948" vert-adv-y="2048"  />

      
      <glyph glyph-name="uni1E9E" unicode="&#x1E9E;" d="M158 0L329 0L329 776C329 994 432 1055 568 1055L759 1055L579 726L579 566L686 566C822 566 901 493 901 364C901 240 814 166 705 166L467 166L467 0L737 0C930 0 1073 152 1073 361C1073 559 945 700 754 720L1034 1219L566 1219C335 1219 158 1082 158 779Z"  horiz-adv-x="1155" vert-adv-y="2048"  />

      
      <glyph glyph-name="uni54" unicode="&#x54;" d="M851 1219L26 1219L26 1056L353 1056L353 0L524 0L524 1056L851 1056Z"  horiz-adv-x="877" vert-adv-y="2048"  />

      
      <glyph glyph-name="uni0166" unicode="&#x0166;" d="M851 1056L851 1219L26 1219L26 1056L353 1056L353 675L189 675L189 545L353 545L353 0L524 0L524 545L689 545L689 675L524 675L524 1056Z"  horiz-adv-x="877" vert-adv-y="2048"  />

      
      <glyph glyph-name="uni0164" unicode="&#x0164;" d="M517 1320L688 1610L562 1610L439 1411L315 1610L190 1610L359 1320ZM851 1219L26 1219L26 1056L353 1056L353 0L524 0L524 1056L851 1056Z"  horiz-adv-x="877" vert-adv-y="2048"  />

      
      <glyph glyph-name="uni0162" unicode="&#x0162;" d="M524 0L524 1056L851 1056L851 1219L26 1219L26 1056L353 1056L353 0L385 0L309-145L380-189C463-154 529-181 529-251C529-297 493-334 448-334C410-334 362-310 342-279L259-310C288-373 371-423 448-423C544-423 619-347 619-251C619-149 531-83 422-103L475 0Z"  horiz-adv-x="877" vert-adv-y="2048"  />

      
      <glyph glyph-name="uni021A" unicode="&#x021A;" d="M26 1219L26 1056L353 1056L353 0L524 0L524 1056L851 1056L851 1219ZM228-392L330-392L529-100L348-100Z"  horiz-adv-x="877" vert-adv-y="2048"  />

      
      <glyph glyph-name="uni55" unicode="&#x55;" d="M628-16C901-16 1102 159 1102 398L1102 1219L931 1219L931 427C931 266 802 147 628 147C454 147 327 266 327 427L327 1219L156 1219L156 398C156 159 357-16 628-16Z"  horiz-adv-x="1258" vert-adv-y="2048"  />

      
      <glyph glyph-name="unida" unicode="&#xda;" d="M574 1320L684 1320L931 1610L752 1610ZM628-16C901-16 1102 159 1102 398L1102 1219L931 1219L931 427C931 266 802 147 628 147C454 147 327 266 327 427L327 1219L156 1219L156 398C156 159 357-16 628-16Z"  horiz-adv-x="1258" vert-adv-y="2048"  />

      
      <glyph glyph-name="unidb" unicode="&#xdb;" d="M380 1320L506 1320L631 1520L753 1320L879 1320L707 1610L550 1610ZM628-16C901-16 1102 159 1102 398L1102 1219L931 1219L931 427C931 266 802 147 628 147C454 147 327 266 327 427L327 1219L156 1219L156 398C156 159 357-16 628-16Z"  horiz-adv-x="1258" vert-adv-y="2048"  />

      
      <glyph glyph-name="unidc" unicode="&#xdc;" d="M463 1438C522 1438 572 1487 572 1545C572 1606 522 1653 463 1653C405 1653 355 1606 355 1545C355 1487 405 1438 463 1438ZM795 1438C853 1438 903 1487 903 1545C903 1606 853 1653 795 1653C736 1653 687 1606 687 1545C687 1487 736 1438 795 1438ZM628-16C901-16 1102 159 1102 398L1102 1219L931 1219L931 427C931 266 802 147 628 147C454 147 327 266 327 427L327 1219L156 1219L156 398C156 159 357-16 628-16Z"  horiz-adv-x="1258" vert-adv-y="2048"  />

      
      <glyph glyph-name="unid9" unicode="&#xd9;" d="M574 1320L684 1320L506 1610L327 1610ZM628-16C901-16 1102 159 1102 398L1102 1219L931 1219L931 427C931 266 802 147 628 147C454 147 327 266 327 427L327 1219L156 1219L156 398C156 159 357-16 628-16Z"  horiz-adv-x="1258" vert-adv-y="2048"  />

      
      <glyph glyph-name="uni0170" unicode="&#x0170;" d="M435 1320L544 1320L789 1610L611 1610ZM716 1320L825 1320L1070 1610L892 1610ZM628-16C901-16 1102 159 1102 398L1102 1219L931 1219L931 427C931 266 802 147 628 147C454 147 327 266 327 427L327 1219L156 1219L156 398C156 159 357-16 628-16Z"  horiz-adv-x="1258" vert-adv-y="2048"  />

      
      <glyph glyph-name="uni016A" unicode="&#x016A;" d="M403 1371L855 1371L855 1481L403 1481ZM628-16C901-16 1102 159 1102 398L1102 1219L931 1219L931 427C931 266 802 147 628 147C454 147 327 266 327 427L327 1219L156 1219L156 398C156 159 357-16 628-16Z"  horiz-adv-x="1258" vert-adv-y="2048"  />

      
      <glyph glyph-name="uni0172" unicode="&#x0172;" d="M931 1219L931 427C931 266 802 147 628 147C454 147 327 266 327 427L327 1219L156 1219L156 398C156 167 344-5 602-15C507-75 439-145 439-243C439-348 512-414 627-421C712-425 794-396 856-333L801-256C767-305 712-335 653-335C586-335 550-291 550-229C550-123 641-63 754-3C960 42 1102 197 1102 398L1102 1219Z"  horiz-adv-x="1258" vert-adv-y="2048"  />

      
      <glyph glyph-name="uni016E" unicode="&#x016E;" d="M631 1277C727 1277 807 1358 807 1455C807 1552 727 1632 631 1632C533 1632 452 1552 452 1455C452 1358 533 1277 631 1277ZM631 1358C577 1358 535 1399 535 1455C535 1507 577 1554 631 1554C683 1554 726 1507 726 1455C726 1399 683 1358 631 1358ZM628-16C901-16 1102 159 1102 398L1102 1219L931 1219L931 427C931 266 802 147 628 147C454 147 327 266 327 427L327 1219L156 1219L156 398C156 159 357-16 628-16Z"  horiz-adv-x="1258" vert-adv-y="2048"  />

      
      <glyph glyph-name="uni56" unicode="&#x56;" d="M912 1219L566 218L220 1219L29 1219L470 0L660 0L1100 1219Z"  horiz-adv-x="1129" vert-adv-y="2048"  />

      
      <glyph glyph-name="uni57" unicode="&#x57;" d="M407 0L595 0L880 1014L1169 0L1357 0L1723 1219L1544 1219L1260 270L986 1219L774 1219L504 270L219 1219L39 1219Z"  horiz-adv-x="1761" vert-adv-y="2048"  />

      
      <glyph glyph-name="uni1E82" unicode="&#x1E82;" d="M826 1320L936 1320L1183 1610L1004 1610ZM407 0L595 0L880 1014L1169 0L1357 0L1723 1219L1544 1219L1260 270L986 1219L774 1219L504 270L219 1219L39 1219Z"  horiz-adv-x="1761" vert-adv-y="2048"  />

      
      <glyph glyph-name="uni0174" unicode="&#x0174;" d="M632 1320L758 1320L883 1520L1005 1320L1131 1320L959 1610L802 1610ZM407 0L595 0L880 1014L1169 0L1357 0L1723 1219L1544 1219L1260 270L986 1219L774 1219L504 270L219 1219L39 1219Z"  horiz-adv-x="1761" vert-adv-y="2048"  />

      
      <glyph glyph-name="uni1E84" unicode="&#x1E84;" d="M715 1438C774 1438 824 1487 824 1545C824 1606 774 1653 715 1653C657 1653 607 1606 607 1545C607 1487 657 1438 715 1438ZM1047 1438C1105 1438 1155 1487 1155 1545C1155 1606 1105 1653 1047 1653C988 1653 939 1606 939 1545C939 1487 988 1438 1047 1438ZM407 0L595 0L880 1014L1169 0L1357 0L1723 1219L1544 1219L1260 270L986 1219L774 1219L504 270L219 1219L39 1219Z"  horiz-adv-x="1761" vert-adv-y="2048"  />

      
      <glyph glyph-name="uni1E80" unicode="&#x1E80;" d="M826 1320L936 1320L758 1610L579 1610ZM407 0L595 0L880 1014L1169 0L1357 0L1723 1219L1544 1219L1260 270L986 1219L774 1219L504 270L219 1219L39 1219Z"  horiz-adv-x="1761" vert-adv-y="2048"  />

      
      <glyph glyph-name="uni58" unicode="&#x58;" d="M29 0L233 0L538 480L847 0L1049 0L632 622L1035 1219L834 1219L539 764L246 1219L44 1219L446 621Z"  horiz-adv-x="1078" vert-adv-y="2048"  />

      
      <glyph glyph-name="uni59" unicode="&#x59;" d="M436 0L606 0L606 577L1031 1219L829 1219L521 742L214 1219L9 1219L436 573Z"  horiz-adv-x="1040" vert-adv-y="2048"  />

      
      <glyph glyph-name="unidd" unicode="&#xdd;" d="M464 1320L574 1320L821 1610L642 1610ZM436 0L606 0L606 577L1031 1219L829 1219L521 742L214 1219L9 1219L436 573Z"  horiz-adv-x="1040" vert-adv-y="2048"  />

      
      <glyph glyph-name="uni0176" unicode="&#x0176;" d="M270 1320L396 1320L521 1520L643 1320L769 1320L597 1610L440 1610ZM436 0L606 0L606 577L1031 1219L829 1219L521 742L214 1219L9 1219L436 573Z"  horiz-adv-x="1040" vert-adv-y="2048"  />

      
      <glyph glyph-name="uni0178" unicode="&#x0178;" d="M353 1438C412 1438 462 1487 462 1545C462 1606 412 1653 353 1653C295 1653 245 1606 245 1545C245 1487 295 1438 353 1438ZM685 1438C743 1438 793 1487 793 1545C793 1606 743 1653 685 1653C626 1653 577 1606 577 1545C577 1487 626 1438 685 1438ZM436 0L606 0L606 577L1031 1219L829 1219L521 742L214 1219L9 1219L436 573Z"  horiz-adv-x="1040" vert-adv-y="2048"  />

      
      <glyph glyph-name="uni1EF2" unicode="&#x1EF2;" d="M464 1320L574 1320L396 1610L217 1610ZM436 0L606 0L606 577L1031 1219L829 1219L521 742L214 1219L9 1219L436 573Z"  horiz-adv-x="1040" vert-adv-y="2048"  />

      
      <glyph glyph-name="uni5a" unicode="&#x5a;" d="M331 163L949 1219L90 1219L90 1056L660 1056L41 0L966 0L966 163Z"  horiz-adv-x="1017" vert-adv-y="2048"  />

      
      <glyph glyph-name="uni0179" unicode="&#x0179;" d="M810 1610L631 1610L453 1320L563 1320ZM331 163L949 1219L90 1219L90 1056L660 1056L41 0L966 0L966 163Z"  horiz-adv-x="1017" vert-adv-y="2048"  />

      
      <glyph glyph-name="uni017D" unicode="&#x017D;" d="M586 1320L757 1610L631 1610L508 1411L384 1610L259 1610L428 1320ZM331 163L949 1219L90 1219L90 1056L660 1056L41 0L966 0L966 163Z"  horiz-adv-x="1017" vert-adv-y="2048"  />

      
      <glyph glyph-name="uni017B" unicode="&#x017B;" d="M508 1438C567 1438 617 1487 617 1545C617 1606 567 1653 508 1653C450 1653 400 1606 400 1545C400 1487 450 1438 508 1438ZM331 163L949 1219L90 1219L90 1056L660 1056L41 0L966 0L966 163Z"  horiz-adv-x="1017" vert-adv-y="2048"  />

      
      <glyph glyph-name="uni61" unicode="&#x61;" d="M1025 143C984 143 945 166 945 241L945 828L774 828L774 735C702 804 605 845 495 845C259 845 71 653 71 414C71 175 259-16 495-16C616-16 722 38 796 121C829 38 898-16 986-16C1012-16 1041-11 1072 0L1072 143ZM509 146C360 146 241 264 241 414C241 563 360 683 509 683C657 683 778 563 778 414C778 264 657 146 509 146Z"  horiz-adv-x="1122" vert-adv-y="2048"  />

      
      <glyph glyph-name="unie1" unicode="&#xe1;" d="M811 1219L632 1219L454 929L564 929ZM1025 143C984 143 945 166 945 241L945 828L774 828L774 735C702 804 605 845 495 845C259 845 71 653 71 414C71 175 259-16 495-16C616-16 722 38 796 121C829 38 898-16 986-16C1012-16 1041-11 1072 0L1072 143ZM509 146C360 146 241 264 241 414C241 563 360 683 509 683C657 683 778 563 778 414C778 264 657 146 509 146Z"  horiz-adv-x="1122" vert-adv-y="2048"  />

      
      <glyph glyph-name="uni0103" unicode="&#x0103;" d="M508 970C669 970 784 1055 784 1219L686 1219C686 1133 613 1066 508 1066C404 1066 331 1133 331 1219L233 1219C233 1055 348 970 508 970ZM1025 143C984 143 945 166 945 241L945 828L774 828L774 735C702 804 605 845 495 845C259 845 71 653 71 414C71 175 259-16 495-16C616-16 722 38 796 121C829 38 898-16 986-16C1012-16 1041-11 1072 0L1072 143ZM509 146C360 146 241 264 241 414C241 563 360 683 509 683C657 683 778 563 778 414C778 264 657 146 509 146Z"  horiz-adv-x="1122" vert-adv-y="2048"  />

      
      <glyph glyph-name="unie2" unicode="&#xe2;" d="M510 1129L632 929L758 929L586 1219L429 1219L259 929L385 929ZM1025 143C984 143 945 166 945 241L945 828L774 828L774 735C702 804 605 845 495 845C259 845 71 653 71 414C71 175 259-16 495-16C616-16 722 38 796 121C829 38 898-16 986-16C1012-16 1041-11 1072 0L1072 143ZM509 146C360 146 241 264 241 414C241 563 360 683 509 683C657 683 778 563 778 414C778 264 657 146 509 146Z"  horiz-adv-x="1122" vert-adv-y="2048"  />

      
      <glyph glyph-name="unie4" unicode="&#xe4;" d="M342 1047C401 1047 451 1096 451 1154C451 1215 401 1262 342 1262C284 1262 234 1215 234 1154C234 1096 284 1047 342 1047ZM674 1047C732 1047 782 1096 782 1154C782 1215 732 1262 674 1262C615 1262 566 1215 566 1154C566 1096 615 1047 674 1047ZM1025 143C984 143 945 166 945 241L945 828L774 828L774 735C702 804 605 845 495 845C259 845 71 653 71 414C71 175 259-16 495-16C616-16 722 38 796 121C829 38 898-16 986-16C1012-16 1041-11 1072 0L1072 143ZM509 146C360 146 241 264 241 414C241 563 360 683 509 683C657 683 778 563 778 414C778 264 657 146 509 146Z"  horiz-adv-x="1122" vert-adv-y="2048"  />

      
      <glyph glyph-name="unie0" unicode="&#xe0;" d="M564 929L386 1219L207 1219L454 929ZM1025 143C984 143 945 166 945 241L945 828L774 828L774 735C702 804 605 845 495 845C259 845 71 653 71 414C71 175 259-16 495-16C616-16 722 38 796 121C829 38 898-16 986-16C1012-16 1041-11 1072 0L1072 143ZM509 146C360 146 241 264 241 414C241 563 360 683 509 683C657 683 778 563 778 414C778 264 657 146 509 146Z"  horiz-adv-x="1122" vert-adv-y="2048"  />

      
      <glyph glyph-name="uni0101" unicode="&#x0101;" d="M735 1090L283 1090L283 980L735 980ZM1025 143C984 143 945 166 945 241L945 828L774 828L774 735C702 804 605 845 495 845C259 845 71 653 71 414C71 175 259-16 495-16C616-16 722 38 796 121C829 38 898-16 986-16C1012-16 1041-11 1072 0L1072 143ZM509 146C360 146 241 264 241 414C241 563 360 683 509 683C657 683 778 563 778 414C778 264 657 146 509 146Z"  horiz-adv-x="1122" vert-adv-y="2048"  />

      
      <glyph glyph-name="uni0105" unicode="&#x0105;" d="M1114-256C1080-305 1025-335 966-335C899-335 863-291 863-229C863-121 957-61 1072 0L1072 143L1025 143C984 143 945 166 945 241L945 828L774 828L774 735C702 804 605 845 495 845C259 845 71 653 71 414C71 175 259-16 495-16C616-16 722 38 796 121C821 57 868 11 928-8C826-69 752-141 752-243C752-348 825-414 940-421C1025-425 1107-396 1169-333ZM509 146C360 146 241 264 241 414C241 563 360 683 509 683C657 683 778 563 778 414C778 264 657 146 509 146Z"  horiz-adv-x="1122" vert-adv-y="2048"  />

      
      <glyph glyph-name="unie5" unicode="&#xe5;" d="M510 886C606 886 686 967 686 1064C686 1161 606 1241 510 1241C412 1241 331 1161 331 1064C331 967 412 886 510 886ZM510 1163C562 1163 605 1116 605 1064C605 1008 562 967 510 967C456 967 414 1008 414 1064C414 1116 456 1163 510 1163ZM1025 143C984 143 945 166 945 241L945 828L774 828L774 735C702 804 605 845 495 845C259 845 71 653 71 414C71 175 259-16 495-16C616-16 722 38 796 121C829 38 898-16 986-16C1012-16 1041-11 1072 0L1072 143ZM509 146C360 146 241 264 241 414C241 563 360 683 509 683C657 683 778 563 778 414C778 264 657 146 509 146Z"  horiz-adv-x="1122" vert-adv-y="2048"  />

      
      <glyph glyph-name="unie3" unicode="&#xe3;" d="M405 1116C468 1116 496 986 616 986C734 986 796 1089 796 1219L685 1219C685 1139 661 1096 615 1096C550 1096 518 1227 402 1227C289 1227 222 1127 222 994L335 994C335 1062 358 1116 405 1116ZM1025 143C984 143 945 166 945 241L945 828L774 828L774 735C702 804 605 845 495 845C259 845 71 653 71 414C71 175 259-16 495-16C616-16 722 38 796 121C829 38 898-16 986-16C1012-16 1041-11 1072 0L1072 143ZM509 146C360 146 241 264 241 414C241 563 360 683 509 683C657 683 778 563 778 414C778 264 657 146 509 146Z"  horiz-adv-x="1122" vert-adv-y="2048"  />

      
      <glyph glyph-name="unie6" unicode="&#xe6;" d="M1497 420C1493 664 1307 845 1063 845C937 845 825 796 746 715C685 796 580 845 452 845C287 845 154 767 112 650L273 600C290 666 365 712 449 711C555 711 630 640 630 539L630 506L401 506C203 506 75 409 75 245C75 88 195-16 377-16C495-16 621 40 725 136C805 42 925-16 1064-16C1270-16 1432 112 1481 291L1307 291C1267 197 1175 136 1064 136C917 136 807 242 796 387L1496 387ZM1064 691C1179 691 1269 623 1306 520L814 520C853 622 946 691 1064 691ZM395 125C305 125 248 171 248 246C248 328 312 373 419 373L627 373C630 334 639 297 651 262C578 178 479 125 395 125Z"  horiz-adv-x="1566" vert-adv-y="2048"  />

      
      <glyph glyph-name="uni62" unicode="&#x62;" d="M595 845C486 845 389 804 316 736L316 1495L145 1495L145 0L316 0L316 93C389 25 486-16 595-16C831-16 1019 175 1019 414C1019 653 831 845 595 845ZM581 146C432 146 312 264 312 414C312 563 432 683 581 683C729 683 849 563 849 414C849 264 729 146 581 146Z"  horiz-adv-x="1091" vert-adv-y="2048"  />

      
      <glyph glyph-name="uni63" unicode="&#x63;" d="M508-16C718-16 882 115 931 297L751 297C708 207 616 146 508 146C360 146 240 263 240 414C240 565 360 682 508 683C616 682 708 621 751 531L931 531C882 713 718 845 508 845C259 845 70 655 70 414C70 173 259-16 508-16Z"  horiz-adv-x="996" vert-adv-y="2048"  />

      
      <glyph glyph-name="uni0107" unicode="&#x0107;" d="M441 929L551 929L798 1219L619 1219ZM508-16C718-16 882 115 931 297L751 297C708 207 616 146 508 146C360 146 240 263 240 414C240 565 360 682 508 683C616 682 708 621 751 531L931 531C882 713 718 845 508 845C259 845 70 655 70 414C70 173 259-16 508-16Z"  horiz-adv-x="996" vert-adv-y="2048"  />

      
      <glyph glyph-name="uni010D" unicode="&#x010D;" d="M416 929L574 929L745 1219L619 1219L496 1020L372 1219L247 1219ZM508-16C718-16 882 115 931 297L751 297C708 207 616 146 508 146C360 146 240 263 240 414C240 565 360 682 508 683C616 682 708 621 751 531L931 531C882 713 718 845 508 845C259 845 70 655 70 414C70 173 259-16 508-16Z"  horiz-adv-x="996" vert-adv-y="2048"  />

      
      <glyph glyph-name="unie7" unicode="&#xe7;" d="M508 146C360 146 240 263 240 414C240 565 360 682 508 683C616 682 708 621 751 531L931 531C882 713 718 845 508 845C259 845 70 655 70 414C70 196 224 21 437-11L367-145L438-189C521-154 587-181 587-251C587-297 551-334 506-334C468-334 420-310 400-279L317-310C346-373 429-423 506-423C602-423 677-347 677-251C677-149 589-83 480-103L525-16C727-9 883 120 931 297L751 297C708 207 616 146 508 146Z"  horiz-adv-x="996" vert-adv-y="2048"  />

      
      <glyph glyph-name="uni010B" unicode="&#x010B;" d="M496 1047C555 1047 605 1096 605 1154C605 1215 555 1262 496 1262C438 1262 388 1215 388 1154C388 1096 438 1047 496 1047ZM508-16C718-16 882 115 931 297L751 297C708 207 616 146 508 146C360 146 240 263 240 414C240 565 360 682 508 683C616 682 708 621 751 531L931 531C882 713 718 845 508 845C259 845 70 655 70 414C70 173 259-16 508-16Z"  horiz-adv-x="996" vert-adv-y="2048"  />

      
      <glyph glyph-name="uni64" unicode="&#x64;" d="M774 1495L774 736C701 804 604 845 494 845C259 845 70 653 70 414C70 175 259-16 494-16C604-16 701 25 774 93L774 0L944 0L944 1495ZM509 146C360 146 241 264 241 414C241 563 360 683 509 683C657 683 777 563 777 414C777 264 657 146 509 146Z"  horiz-adv-x="1090" vert-adv-y="2048"  />

      
      <glyph glyph-name="unif0" unicode="&#xf0;" d="M642 1140L712 1231L631 1292L555 1196C473 1242 382 1272 285 1276L252 1139C326 1135 397 1117 464 1082L381 977L464 913L554 1028C624 977 714 889 757 762C690 825 598 845 517 845C267 845 67 653 67 414C67 175 267-16 517-16C821-16 969 214 969 484C969 708 863 970 642 1140ZM517 144C367 144 248 264 248 414C248 563 367 683 517 683C667 683 785 563 785 414C785 264 667 144 517 144Z"  horiz-adv-x="1062" vert-adv-y="2048"  />

      
      <glyph glyph-name="uni010F" unicode="&#x010F;" d="M754 736C681 804 584 845 474 845C239 845 50 653 50 414C50 175 239-16 474-16C584-16 681 25 754 93L754 0L924 0L924 1495L754 1495ZM1207 1219L1001 754L1132 754L1392 1219ZM489 146C340 146 221 264 221 414C221 563 340 683 489 683C637 683 757 563 757 414C757 264 637 146 489 146Z"  horiz-adv-x="1172" vert-adv-y="2048"  />

      
      <glyph glyph-name="uni0111" unicode="&#x0111;" d="M1088 1284L944 1284L944 1495L774 1495L774 1284L588 1284L588 1154L774 1154L774 736C701 804 604 845 494 845C259 845 70 653 70 414C70 175 259-16 494-16C604-16 701 25 774 93L774 0L944 0L944 1154L1088 1154ZM509 146C360 146 241 264 241 414C241 563 360 683 509 683C657 683 777 563 777 414C777 264 657 146 509 146Z"  horiz-adv-x="1090" vert-adv-y="2048"  />

      
      <glyph glyph-name="uni65" unicode="&#x65;" d="M942 420C938 664 753 845 507 845C261 845 71 658 71 414C71 170 260-16 509-16C716-16 877 112 927 291L752 291C713 197 621 136 508 136C362 136 253 242 242 387L941 387ZM508 691C624 691 714 623 752 520L260 520C299 622 391 691 508 691Z"  horiz-adv-x="1011" vert-adv-y="2048"  />

      
      <glyph glyph-name="unie9" unicode="&#xe9;" d="M807 1219L628 1219L450 929L560 929ZM942 420C938 664 753 845 507 845C261 845 71 658 71 414C71 170 260-16 509-16C716-16 877 112 927 291L752 291C713 197 621 136 508 136C362 136 253 242 242 387L941 387ZM508 691C624 691 714 623 752 520L260 520C299 622 391 691 508 691Z"  horiz-adv-x="1011" vert-adv-y="2048"  />

      
      <glyph glyph-name="uni011B" unicode="&#x011B;" d="M583 929L754 1219L628 1219L505 1020L381 1219L256 1219L425 929ZM942 420C938 664 753 845 507 845C261 845 71 658 71 414C71 170 260-16 509-16C716-16 877 112 927 291L752 291C713 197 621 136 508 136C362 136 253 242 242 387L941 387ZM508 691C624 691 714 623 752 520L260 520C299 622 391 691 508 691Z"  horiz-adv-x="1011" vert-adv-y="2048"  />

      
      <glyph glyph-name="uniea" unicode="&#xea;" d="M506 1129L628 929L754 929L582 1219L425 1219L255 929L381 929ZM942 420C938 664 753 845 507 845C261 845 71 658 71 414C71 170 260-16 509-16C716-16 877 112 927 291L752 291C713 197 621 136 508 136C362 136 253 242 242 387L941 387ZM508 691C624 691 714 623 752 520L260 520C299 622 391 691 508 691Z"  horiz-adv-x="1011" vert-adv-y="2048"  />

      
      <glyph glyph-name="unieb" unicode="&#xeb;" d="M339 1047C398 1047 448 1096 448 1154C448 1215 398 1262 339 1262C281 1262 231 1215 231 1154C231 1096 281 1047 339 1047ZM671 1047C729 1047 779 1096 779 1154C779 1215 729 1262 671 1262C612 1262 563 1215 563 1154C563 1096 612 1047 671 1047ZM942 420C938 664 753 845 507 845C261 845 71 658 71 414C71 170 260-16 509-16C716-16 877 112 927 291L752 291C713 197 621 136 508 136C362 136 253 242 242 387L941 387ZM508 691C624 691 714 623 752 520L260 520C299 622 391 691 508 691Z"  horiz-adv-x="1011" vert-adv-y="2048"  />

      
      <glyph glyph-name="uni0117" unicode="&#x0117;" d="M505 1047C564 1047 614 1096 614 1154C614 1215 564 1262 505 1262C447 1262 397 1215 397 1154C397 1096 447 1047 505 1047ZM942 420C938 664 753 845 507 845C261 845 71 658 71 414C71 170 260-16 509-16C716-16 877 112 927 291L752 291C713 197 621 136 508 136C362 136 253 242 242 387L941 387ZM508 691C624 691 714 623 752 520L260 520C299 622 391 691 508 691Z"  horiz-adv-x="1011" vert-adv-y="2048"  />

      
      <glyph glyph-name="unie8" unicode="&#xe8;" d="M560 929L382 1219L203 1219L450 929ZM942 420C938 664 753 845 507 845C261 845 71 658 71 414C71 170 260-16 509-16C716-16 877 112 927 291L752 291C713 197 621 136 508 136C362 136 253 242 242 387L941 387ZM508 691C624 691 714 623 752 520L260 520C299 622 391 691 508 691Z"  horiz-adv-x="1011" vert-adv-y="2048"  />

      
      <glyph glyph-name="uni0113" unicode="&#x0113;" d="M731 1090L279 1090L279 980L731 980ZM942 420C938 664 753 845 507 845C261 845 71 658 71 414C71 170 260-16 509-16C716-16 877 112 927 291L752 291C713 197 621 136 508 136C362 136 253 242 242 387L941 387ZM508 691C624 691 714 623 752 520L260 520C299 622 391 691 508 691Z"  horiz-adv-x="1011" vert-adv-y="2048"  />

      
      <glyph glyph-name="uni0119" unicode="&#x0119;" d="M942 420C938 664 753 845 507 845C261 845 71 658 71 414C71 178 248-4 485-15C398-73 337-140 337-233C337-338 410-404 525-411C610-415 692-386 754-323L699-246C665-295 610-325 551-325C484-325 448-281 448-219C448-115 536-55 646 4C785 47 889 154 927 291L752 291C713 197 621 136 508 136C362 136 253 242 242 387L941 387ZM508 691C624 691 714 623 752 520L260 520C299 622 391 691 508 691Z"  horiz-adv-x="1011" vert-adv-y="2048"  />

      
      <glyph glyph-name="uni66" unicode="&#x66;" d="M568 828L353 828L353 1232C353 1305 406 1353 468 1353L564 1353L564 1486C542 1500 494 1512 447 1512C304 1512 183 1398 183 1254L183 828L44 828L44 676L183 676L183 0L353 0L353 676L568 676Z"  horiz-adv-x="575" vert-adv-y="2048"  />

      
      <glyph glyph-name="uni67" unicode="&#x67;" d="M772 828L772 738C699 805 603 845 494 845C259 845 70 655 70 414C70 175 259-16 494-16C604-16 701 25 774 93L774-72C774-280 667-353 514-353C382-353 279-272 246-157L89-225C149-397 309-514 514-514C769-514 944-374 944-69L944 828ZM509 146C360 146 241 266 241 414C241 563 360 683 509 683C657 683 777 563 777 414C777 266 657 146 509 146Z"  horiz-adv-x="1089" vert-adv-y="2048"  />

      
      <glyph glyph-name="uni011F" unicode="&#x011F;" d="M537 970C698 970 813 1055 813 1219L715 1219C715 1133 642 1066 537 1066C433 1066 360 1133 360 1219L262 1219C262 1055 377 970 537 970ZM772 828L772 738C699 805 603 845 494 845C259 845 70 655 70 414C70 175 259-16 494-16C604-16 701 25 774 93L774-72C774-280 667-353 514-353C382-353 279-272 246-157L89-225C149-397 309-514 514-514C769-514 944-374 944-69L944 828ZM509 146C360 146 241 266 241 414C241 563 360 683 509 683C657 683 777 563 777 414C777 266 657 146 509 146Z"  horiz-adv-x="1089" vert-adv-y="2048"  />

      
      <glyph glyph-name="uni0123" unicode="&#x0123;" d="M747 1219L646 1219L446 947L628 947ZM772 828L772 738C699 805 603 845 494 845C259 845 70 655 70 414C70 175 259-16 494-16C604-16 701 25 774 93L774-72C774-280 667-353 514-353C382-353 279-272 246-157L89-225C149-397 309-514 514-514C769-514 944-374 944-69L944 828ZM509 146C360 146 241 266 241 414C241 563 360 683 509 683C657 683 777 563 777 414C777 266 657 146 509 146Z"  horiz-adv-x="1089" vert-adv-y="2048"  />

      
      <glyph glyph-name="uni0121" unicode="&#x0121;" d="M538 1047C597 1047 647 1096 647 1154C647 1215 597 1262 538 1262C480 1262 430 1215 430 1154C430 1096 480 1047 538 1047ZM772 828L772 738C699 805 603 845 494 845C259 845 70 655 70 414C70 175 259-16 494-16C604-16 701 25 774 93L774-72C774-280 667-353 514-353C382-353 279-272 246-157L89-225C149-397 309-514 514-514C769-514 944-374 944-69L944 828ZM509 146C360 146 241 266 241 414C241 563 360 683 509 683C657 683 777 563 777 414C777 266 657 146 509 146Z"  horiz-adv-x="1089" vert-adv-y="2048"  />

      
      <glyph glyph-name="uni68" unicode="&#x68;" d="M510 845C437 845 370 820 316 778L316 1495L145 1495L145 0L316 0L316 512C316 606 390 683 483 683C576 683 649 609 649 516L649 0L820 0L820 528C820 706 682 845 510 845Z"  horiz-adv-x="946" vert-adv-y="2048"  />

      
      <glyph glyph-name="uni0127" unicode="&#x0127;" d="M510 845C437 845 370 820 316 778L316 1154L544 1154L544 1284L316 1284L316 1495L145 1495L145 1284L44 1284L44 1154L145 1154L145 0L316 0L316 512C316 606 390 683 483 683C576 683 649 609 649 516L649 0L820 0L820 528C820 706 682 845 510 845Z"  horiz-adv-x="946" vert-adv-y="2048"  />

      
      <glyph glyph-name="uni69" unicode="&#x69;" d="M231 1047C290 1047 340 1096 340 1154C340 1215 290 1262 231 1262C173 1262 123 1215 123 1154C123 1096 173 1047 231 1047ZM145 0L316 0L316 828L145 828Z"  horiz-adv-x="461" vert-adv-y="2048"  />

      
      <glyph glyph-name="uni0131" unicode="&#x0131;" d="M145 0L316 0L316 828L145 828Z"  horiz-adv-x="461" vert-adv-y="2048"  />

      
      <glyph glyph-name="unied" unicode="&#xed;" d="M176 929L286 929L533 1219L354 1219ZM145 0L316 0L316 828L145 828Z"  horiz-adv-x="461" vert-adv-y="2048"  />

      
      <glyph glyph-name="uniee" unicode="&#xee;" d="M-19 929L107 929L232 1129L354 929L480 929L308 1219L151 1219ZM145 0L316 0L316 828L145 828Z"  horiz-adv-x="461" vert-adv-y="2048"  />

      
      <glyph glyph-name="unief" unicode="&#xef;" d="M65 1047C124 1047 174 1096 174 1154C174 1215 124 1262 65 1262C7 1262-43 1215-43 1154C-43 1096 7 1047 65 1047ZM397 1047C455 1047 505 1096 505 1154C505 1215 455 1262 397 1262C338 1262 289 1215 289 1154C289 1096 338 1047 397 1047ZM145 0L316 0L316 828L145 828Z"  horiz-adv-x="461" vert-adv-y="2048"  />

      
      <glyph glyph-name="uniec" unicode="&#xec;" d="M176 929L286 929L108 1219L-71 1219ZM145 0L316 0L316 828L145 828Z"  horiz-adv-x="461" vert-adv-y="2048"  />

      
      <glyph glyph-name="uni012B" unicode="&#x012B;" d="M5 980L457 980L457 1090L5 1090ZM145 0L316 0L316 828L145 828Z"  horiz-adv-x="461" vert-adv-y="2048"  />

      
      <glyph glyph-name="uni012F" unicode="&#x012F;" d="M231 1047C290 1047 340 1096 340 1154C340 1215 290 1262 231 1262C173 1262 123 1215 123 1154C123 1096 173 1047 231 1047ZM358-256C324-305 269-335 210-335C143-335 107-291 107-229C107-121 201-61 316 0L316 828L145 828L145 0L185 0C76-63-4-136-4-243C-4-348 69-414 184-421C269-425 351-396 413-333Z"  horiz-adv-x="461" vert-adv-y="2048"  />

      
      <glyph glyph-name="uni6a" unicode="&#x6a;" d="M231 1047C290 1047 340 1096 340 1154C340 1215 290 1262 231 1262C173 1262 123 1215 123 1154C123 1096 173 1047 231 1047ZM52-553C207-553 316-442 316-291L316 828L145 828L145-273C145-346 93-394 25-394L-65-394L-65-527C-44-541 5-553 52-553Z"  horiz-adv-x="461" vert-adv-y="2048"  />

      
      <glyph glyph-name="uni0237" unicode="&#x0237;" d="M52-553C207-553 316-442 316-291L316 828L145 828L145-273C145-346 93-394 25-394L-65-394L-65-527C-44-541 5-553 52-553Z"  horiz-adv-x="461" vert-adv-y="2048"  />

      
      <glyph glyph-name="uni6b" unicode="&#x6b;" d="M905 0L494 457L870 828L653 828L316 496L316 1495L145 1495L145 0L316 0L316 425L675 0Z"  horiz-adv-x="896" vert-adv-y="2048"  />

      
      <glyph glyph-name="uni0137" unicode="&#x0137;" d="M494 457L870 828L653 828L316 496L316 1495L145 1495L145 0L316 0L316 425L675 0L905 0ZM256-392L358-392L557-100L376-100Z"  horiz-adv-x="896" vert-adv-y="2048"  />

      
      <glyph glyph-name="uni6c" unicode="&#x6c;" d="M145 0L316 0L316 1495L145 1495Z"  horiz-adv-x="461" vert-adv-y="2048"  />

      
      <glyph glyph-name="uni013A" unicode="&#x013A;" d="M176 1596L286 1596L533 1886L354 1886ZM145 0L316 0L316 1495L145 1495Z"  horiz-adv-x="461" vert-adv-y="2048"  />

      
      <glyph glyph-name="uni013E" unicode="&#x013E;" d="M125 0L296 0L296 1495L125 1495ZM367 754L498 754L758 1219L574 1219Z"  horiz-adv-x="540" vert-adv-y="2048"  />

      
      <glyph glyph-name="uni013C" unicode="&#x013C;" d="M145 0L316 0L316 1495L145 1495ZM20-392L122-392L321-100L140-100Z"  horiz-adv-x="461" vert-adv-y="2048"  />

      
      <glyph glyph-name="uni0142" unicode="&#x0142;" d="M425 1035L316 920L316 1495L145 1495L145 740L37 626L37 460L145 574L145 0L316 0L316 753L425 868Z"  horiz-adv-x="461" vert-adv-y="2048"  />

      
      <glyph glyph-name="uni6d" unicode="&#x6d;" d="M145 0L316 0L316 514C316 604 382 683 475 683C565 683 635 607 635 514L635 0L805 0L805 514C805 604 872 683 964 683C1054 683 1123 607 1123 514L1123 0L1294 0L1294 526C1294 706 1166 845 992 845C887 845 800 796 744 717C690 795 606 845 515 845C436 845 367 806 316 747L316 828L145 828Z"  horiz-adv-x="1421" vert-adv-y="2048"  />

      
      <glyph glyph-name="uni6e" unicode="&#x6e;" d="M522 845C443 845 370 812 316 756L316 828L145 828L145 0L316 0L316 514C316 609 392 683 488 683C582 683 656 609 656 514L656 0L827 0L827 526C827 705 683 845 522 845Z"  horiz-adv-x="952" vert-adv-y="2048"  />

      
      <glyph glyph-name="uni0144" unicode="&#x0144;" d="M779 1219L600 1219L422 929L532 929ZM522 845C443 845 370 812 316 756L316 828L145 828L145 0L316 0L316 514C316 609 392 683 488 683C582 683 656 609 656 514L656 0L827 0L827 526C827 705 683 845 522 845Z"  horiz-adv-x="952" vert-adv-y="2048"  />

      
      <glyph glyph-name="uni0148" unicode="&#x0148;" d="M555 929L726 1219L600 1219L477 1020L353 1219L228 1219L397 929ZM522 845C443 845 370 812 316 756L316 828L145 828L145 0L316 0L316 514C316 609 392 683 488 683C582 683 656 609 656 514L656 0L827 0L827 526C827 705 683 845 522 845Z"  horiz-adv-x="952" vert-adv-y="2048"  />

      
      <glyph glyph-name="uni0146" unicode="&#x0146;" d="M522 845C443 845 370 812 316 756L316 828L145 828L145 0L316 0L316 514C316 609 392 683 488 683C582 683 656 609 656 514L656 0L827 0L827 526C827 705 683 845 522 845ZM266-392L368-392L567-100L386-100Z"  horiz-adv-x="952" vert-adv-y="2048"  />

      
      <glyph glyph-name="uni014B" unicode="&#x014B;" d="M523 845C444 845 371 811 316 756L316 828L145 828L145 0L316 0L316 514C316 610 392 683 488 683C582 683 656 610 656 514L656-212C656-329 606-344 546-342L546-452C728-453 827-390 827-194L827 526C827 705 683 845 523 845Z"  horiz-adv-x="952" vert-adv-y="2048"  />

      
      <glyph glyph-name="unif1" unicode="&#xf1;" d="M373 1116C436 1116 464 986 584 986C702 986 764 1089 764 1219L653 1219C653 1139 629 1096 583 1096C518 1096 486 1227 370 1227C257 1227 190 1127 190 994L303 994C303 1062 326 1116 373 1116ZM522 845C443 845 370 812 316 756L316 828L145 828L145 0L316 0L316 514C316 609 392 683 488 683C582 683 656 609 656 514L656 0L827 0L827 526C827 705 683 845 522 845Z"  horiz-adv-x="952" vert-adv-y="2048"  />

      
      <glyph glyph-name="uni6f" unicode="&#x6f;" d="M509-16C758-16 948 173 948 414C948 655 758 845 509 845C259 845 70 655 70 414C70 173 259-16 509-16ZM509 146C359 146 241 264 241 414C241 563 359 682 509 683C658 682 777 563 777 414C777 264 658 146 509 146Z"  horiz-adv-x="1019" vert-adv-y="2048"  />

      
      <glyph glyph-name="unif3" unicode="&#xf3;" d="M453 929L563 929L810 1219L631 1219ZM509-16C758-16 948 173 948 414C948 655 758 845 509 845C259 845 70 655 70 414C70 173 259-16 509-16ZM509 146C359 146 241 264 241 414C241 563 359 682 509 683C658 682 777 563 777 414C777 264 658 146 509 146Z"  horiz-adv-x="1019" vert-adv-y="2048"  />

      
      <glyph glyph-name="unif4" unicode="&#xf4;" d="M259 929L385 929L510 1129L632 929L758 929L586 1219L429 1219ZM509-16C758-16 948 173 948 414C948 655 758 845 509 845C259 845 70 655 70 414C70 173 259-16 509-16ZM509 146C359 146 241 264 241 414C241 563 359 682 509 683C658 682 777 563 777 414C777 264 658 146 509 146Z"  horiz-adv-x="1019" vert-adv-y="2048"  />

      
      <glyph glyph-name="unif6" unicode="&#xf6;" d="M342 1047C401 1047 451 1096 451 1154C451 1215 401 1262 342 1262C284 1262 234 1215 234 1154C234 1096 284 1047 342 1047ZM674 1047C732 1047 782 1096 782 1154C782 1215 732 1262 674 1262C615 1262 566 1215 566 1154C566 1096 615 1047 674 1047ZM509-16C758-16 948 173 948 414C948 655 758 845 509 845C259 845 70 655 70 414C70 173 259-16 509-16ZM509 146C359 146 241 264 241 414C241 563 359 682 509 683C658 682 777 563 777 414C777 264 658 146 509 146Z"  horiz-adv-x="1019" vert-adv-y="2048"  />

      
      <glyph glyph-name="unif2" unicode="&#xf2;" d="M453 929L563 929L385 1219L206 1219ZM509-16C758-16 948 173 948 414C948 655 758 845 509 845C259 845 70 655 70 414C70 173 259-16 509-16ZM509 146C359 146 241 264 241 414C241 563 359 682 509 683C658 682 777 563 777 414C777 264 658 146 509 146Z"  horiz-adv-x="1019" vert-adv-y="2048"  />

      
      <glyph glyph-name="uni0151" unicode="&#x0151;" d="M313 929L422 929L667 1219L489 1219ZM594 929L703 929L948 1219L770 1219ZM509-16C758-16 948 173 948 414C948 655 758 845 509 845C259 845 70 655 70 414C70 173 259-16 509-16ZM509 146C359 146 241 264 241 414C241 563 359 682 509 683C658 682 777 563 777 414C777 264 658 146 509 146Z"  horiz-adv-x="1019" vert-adv-y="2048"  />

      
      <glyph glyph-name="uni014D" unicode="&#x014D;" d="M282 980L734 980L734 1090L282 1090ZM509-16C758-16 948 173 948 414C948 655 758 845 509 845C259 845 70 655 70 414C70 173 259-16 509-16ZM509 146C359 146 241 264 241 414C241 563 359 682 509 683C658 682 777 563 777 414C777 264 658 146 509 146Z"  horiz-adv-x="1019" vert-adv-y="2048"  />

      
      <glyph glyph-name="unif8" unicode="&#xf8;" d="M807 734L887 848L781 913L704 802C646 830 580 845 509 845C259 845 70 655 70 414C70 286 123 173 210 95L130-20L238-84L315 26C373-1 438-16 509-16C758-16 948 173 948 414C948 542 895 655 807 734ZM241 414C241 563 359 682 509 683C544 683 577 676 607 664L308 235C266 282 241 345 241 414ZM509 146C474 146 441 152 411 164L709 593C752 545 777 483 777 414C777 264 658 146 509 146Z"  horiz-adv-x="1019" vert-adv-y="2048"  />

      
      <glyph glyph-name="unif5" unicode="&#xf5;" d="M615 986C733 986 795 1089 795 1219L684 1219C684 1139 660 1096 614 1096C549 1096 517 1227 401 1227C288 1227 221 1127 221 994L334 994C334 1062 357 1116 404 1116C467 1116 495 986 615 986ZM509-16C758-16 948 173 948 414C948 655 758 845 509 845C259 845 70 655 70 414C70 173 259-16 509-16ZM509 146C359 146 241 264 241 414C241 563 359 682 509 683C658 682 777 563 777 414C777 264 658 146 509 146Z"  horiz-adv-x="1019" vert-adv-y="2048"  />

      
      <glyph glyph-name="uni0153" unicode="&#x0153;" d="M1654 420C1650 664 1464 845 1219 845C1071 845 943 778 864 671C786 777 658 845 509 845C259 845 70 655 70 414C70 173 259-16 509-16C658-16 786 52 865 158C943 51 1071-16 1221-16C1427-16 1589 112 1638 291L1464 291C1424 197 1332 136 1220 136C1073 136 964 242 953 387L1652 387ZM1220 691C1336 691 1426 623 1463 520L971 520C1010 622 1102 691 1220 691ZM509 146C359 146 241 264 241 414C241 563 359 682 509 683C658 682 777 563 777 414C777 264 658 146 509 146Z"  horiz-adv-x="1723" vert-adv-y="2048"  />

      
      <glyph glyph-name="uni70" unicode="&#x70;" d="M595 845C486 845 389 804 316 736L316 828L145 828L145-498L316-498L316 93C389 25 486-16 595-16C831-16 1019 175 1019 414C1019 653 831 845 595 845ZM581 146C432 146 312 264 312 414C312 563 432 683 581 683C729 683 849 563 849 414C849 264 729 146 581 146Z"  horiz-adv-x="1090" vert-adv-y="2048"  />

      
      <glyph glyph-name="unife" unicode="&#xfe;" d="M594 845C486 845 389 804 316 737L316 1495L145 1495L145-497L316-497L316 92C389 25 486-16 594-16C831-16 1018 175 1018 414C1018 653 831 845 594 845ZM584 146C435 146 316 264 316 414C316 563 435 683 584 683C732 683 852 563 852 414C852 264 732 146 584 146Z"  horiz-adv-x="1089" vert-adv-y="2048"  />

      
      <glyph glyph-name="uni71" unicode="&#x71;" d="M1059-338C997-338 944-290 944-217L944 828L774 828L774 736C701 804 604 845 494 845C259 845 70 653 70 414C70 175 259-16 494-16C604-16 701 25 774 93L774-239C774-383 895-497 1038-497C1074-497 1110-490 1136-480L1136-338ZM509 146C360 146 241 264 241 414C241 563 360 683 509 683C657 683 777 563 777 414C777 264 657 146 509 146Z"  horiz-adv-x="1090" vert-adv-y="2048"  />

      
      <glyph glyph-name="uni72" unicode="&#x72;" d="M145 0L316 0L316 421C316 580 431 683 577 683C601 683 624 679 644 676L644 839C624 842 603 845 580 845C469 845 378 798 316 718L316 828L145 828Z"  horiz-adv-x="651" vert-adv-y="2048"  />

      
      <glyph glyph-name="uni0155" unicode="&#x0155;" d="M294 929L404 929L651 1219L472 1219ZM145 0L316 0L316 421C316 580 431 683 577 683C601 683 624 679 644 676L644 839C624 842 603 845 580 845C469 845 378 798 316 718L316 828L145 828Z"  horiz-adv-x="651" vert-adv-y="2048"  />

      
      <glyph glyph-name="uni0159" unicode="&#x0159;" d="M269 929L427 929L598 1219L472 1219L349 1020L225 1219L100 1219ZM145 0L316 0L316 421C316 580 431 683 577 683C601 683 624 679 644 676L644 839C624 842 603 845 580 845C469 845 378 798 316 718L316 828L145 828Z"  horiz-adv-x="651" vert-adv-y="2048"  />

      
      <glyph glyph-name="uni0157" unicode="&#x0157;" d="M145 0L316 0L316 421C316 580 431 683 577 683C601 683 624 679 644 676L644 839C624 842 603 845 580 845C469 845 378 798 316 718L316 828L145 828ZM20-392L122-392L321-100L140-100Z"  horiz-adv-x="651" vert-adv-y="2048"  />

      
      <glyph glyph-name="uni73" unicode="&#x73;" d="M378-16C539-16 666 83 666 234C666 384 545 445 416 493C323 529 274 549 274 610C274 666 313 696 375 696C436 696 487 665 508 624L636 709C598 782 486 845 371 845C225 845 103 751 103 598C103 456 214 398 352 344C449 308 497 286 497 228C497 168 442 134 377 134C304 134 229 173 211 240L61 174C103 62 235-16 378-16Z"  horiz-adv-x="735" vert-adv-y="2048"  />

      
      <glyph glyph-name="uni015B" unicode="&#x015B;" d="M313 929L423 929L670 1219L491 1219ZM378-16C539-16 666 83 666 234C666 384 545 445 416 493C323 529 274 549 274 610C274 666 313 696 375 696C436 696 487 665 508 624L636 709C598 782 486 845 371 845C225 845 103 751 103 598C103 456 214 398 352 344C449 308 497 286 497 228C497 168 442 134 377 134C304 134 229 173 211 240L61 174C103 62 235-16 378-16Z"  horiz-adv-x="735" vert-adv-y="2048"  />

      
      <glyph glyph-name="uni0161" unicode="&#x0161;" d="M288 929L446 929L617 1219L491 1219L368 1020L244 1219L119 1219ZM378-16C539-16 666 83 666 234C666 384 545 445 416 493C323 529 274 549 274 610C274 666 313 696 375 696C436 696 487 665 508 624L636 709C598 782 486 845 371 845C225 845 103 751 103 598C103 456 214 398 352 344C449 308 497 286 497 228C497 168 442 134 377 134C304 134 229 173 211 240L61 174C103 62 235-16 378-16Z"  horiz-adv-x="735" vert-adv-y="2048"  />

      
      <glyph glyph-name="uni015F" unicode="&#x015F;" d="M666 234C666 384 545 445 416 493C323 529 274 549 274 610C274 666 313 696 375 696C436 696 487 665 508 624L636 709C598 782 486 845 371 845C225 845 103 751 103 598C103 456 214 398 352 344C449 308 497 286 497 228C497 168 442 134 377 134C304 134 229 173 211 240L61 174C96 80 194 11 309-10L238-145L309-189C392-154 458-181 458-251C458-297 422-334 377-334C339-334 291-310 271-279L188-310C217-373 300-423 377-423C473-423 548-347 548-251C548-149 460-83 351-103L396-16C548-8 666 89 666 234Z"  horiz-adv-x="735" vert-adv-y="2048"  />

      
      <glyph glyph-name="uni0219" unicode="&#x0219;" d="M378-16C539-16 666 83 666 234C666 384 545 445 416 493C323 529 274 549 274 610C274 666 313 696 375 696C436 696 487 665 508 624L636 709C598 782 486 845 371 845C225 845 103 751 103 598C103 456 214 398 352 344C449 308 497 286 497 228C497 168 442 134 377 134C304 134 229 173 211 240L61 174C103 62 235-16 378-16ZM157-392L259-392L458-100L277-100Z"  horiz-adv-x="735" vert-adv-y="2048"  />

      
      <glyph glyph-name="unidf" unicode="&#xdf;" d="M825 656C896 719 940 810 940 913C940 1109 778 1255 552 1255C322 1255 145 1105 145 867L145 0L316 0L316 863C316 1017 419 1105 556 1105C686 1105 778 1022 778 905C778 794 692 703 571 703L536 703L536 561L621 561C742 561 839 483 839 360C839 241 752 166 637 166L454 166L454-2L675-2C868-2 1011 152 1011 347C1011 485 939 596 825 656Z"  horiz-adv-x="1085" vert-adv-y="2048"  />

      
      <glyph glyph-name="uni74" unicode="&#x74;" d="M557 676L557 828L343 828L343 1176L173 1176L173 828L34 828L34 676L173 676L173 242C173 98 294-16 437-16C484-16 533-5 554 10L554 143L459 143C396 143 343 190 343 264L343 676Z"  horiz-adv-x="621" vert-adv-y="2048"  />

      
      <glyph glyph-name="uni0167" unicode="&#x0167;" d="M576 349L576 479L343 479L343 676L557 676L557 828L343 828L343 1176L173 1176L173 828L34 828L34 676L173 676L173 479L45 479L45 349L173 349L173 242C173 98 294-16 437-16C484-16 533-5 554 10L554 143L459 143C396 143 343 190 343 264L343 349Z"  horiz-adv-x="621" vert-adv-y="2048"  />

      
      <glyph glyph-name="uni0165" unicode="&#x0165;" d="M746 1455L539 990L670 990L930 1455ZM343 1176L173 1176L173 828L34 828L34 676L173 676L173 242C173 98 294-16 437-16C484-16 533-5 554 10L554 143L459 143C396 143 343 190 343 264L343 676L557 676L557 828L343 828Z"  horiz-adv-x="621" vert-adv-y="2048"  />

      
      <glyph glyph-name="uni0163" unicode="&#x0163;" d="M383-103L428-16L437-16C484-16 533-5 554 10L554 143L459 143C396 143 343 190 343 264L343 676L557 676L557 828L343 828L343 1176L173 1176L173 828L34 828L34 676L173 676L173 242C173 130 246 36 346 0L270-145L341-189C424-154 490-181 490-251C490-297 454-334 409-334C371-334 323-310 303-279L220-310C249-373 332-423 409-423C505-423 580-347 580-251C580-149 492-83 383-103Z"  horiz-adv-x="621" vert-adv-y="2048"  />

      
      <glyph glyph-name="uni021B" unicode="&#x021B;" d="M557 676L557 828L343 828L343 1176L173 1176L173 828L34 828L34 676L173 676L173 242C173 98 294-16 437-16C484-16 533-5 554 10L554 143L459 143C396 143 343 190 343 264L343 676ZM189-392L291-392L490-100L309-100Z"  horiz-adv-x="621" vert-adv-y="2048"  />

      
      <glyph glyph-name="uni75" unicode="&#x75;" d="M462-16C666-16 795 91 795 296L795 828L625 828L625 313C625 195 557 146 462 146C367 146 299 195 299 313L299 828L128 828L128 296C128 91 256-16 462-16Z"  horiz-adv-x="923" vert-adv-y="2048"  />

      
      <glyph glyph-name="unifa" unicode="&#xfa;" d="M406 929L516 929L763 1219L584 1219ZM462-16C666-16 795 91 795 296L795 828L625 828L625 313C625 195 557 146 462 146C367 146 299 195 299 313L299 828L128 828L128 296C128 91 256-16 462-16Z"  horiz-adv-x="923" vert-adv-y="2048"  />

      
      <glyph glyph-name="unifb" unicode="&#xfb;" d="M212 929L338 929L463 1129L585 929L711 929L539 1219L382 1219ZM462-16C666-16 795 91 795 296L795 828L625 828L625 313C625 195 557 146 462 146C367 146 299 195 299 313L299 828L128 828L128 296C128 91 256-16 462-16Z"  horiz-adv-x="923" vert-adv-y="2048"  />

      
      <glyph glyph-name="unifc" unicode="&#xfc;" d="M295 1047C354 1047 404 1096 404 1154C404 1215 354 1262 295 1262C237 1262 187 1215 187 1154C187 1096 237 1047 295 1047ZM627 1047C685 1047 735 1096 735 1154C735 1215 685 1262 627 1262C568 1262 519 1215 519 1154C519 1096 568 1047 627 1047ZM462-16C666-16 795 91 795 296L795 828L625 828L625 313C625 195 557 146 462 146C367 146 299 195 299 313L299 828L128 828L128 296C128 91 256-16 462-16Z"  horiz-adv-x="923" vert-adv-y="2048"  />

      
      <glyph glyph-name="unif9" unicode="&#xf9;" d="M406 929L516 929L338 1219L159 1219ZM462-16C666-16 795 91 795 296L795 828L625 828L625 313C625 195 557 146 462 146C367 146 299 195 299 313L299 828L128 828L128 296C128 91 256-16 462-16Z"  horiz-adv-x="923" vert-adv-y="2048"  />

      
      <glyph glyph-name="uni0171" unicode="&#x0171;" d="M267 929L376 929L621 1219L443 1219ZM548 929L657 929L902 1219L724 1219ZM462-16C666-16 795 91 795 296L795 828L625 828L625 313C625 195 557 146 462 146C367 146 299 195 299 313L299 828L128 828L128 296C128 91 256-16 462-16Z"  horiz-adv-x="923" vert-adv-y="2048"  />

      
      <glyph glyph-name="uni016B" unicode="&#x016B;" d="M235 980L687 980L687 1090L235 1090ZM462-16C666-16 795 91 795 296L795 828L625 828L625 313C625 195 557 146 462 146C367 146 299 195 299 313L299 828L128 828L128 296C128 91 256-16 462-16Z"  horiz-adv-x="923" vert-adv-y="2048"  />

      
      <glyph glyph-name="uni0173" unicode="&#x0173;" d="M625 828L625 313C625 195 557 146 462 146C367 146 299 195 299 313L299 828L128 828L128 296C128 102 242-4 429-15C333-75 265-145 265-243C265-348 338-414 453-421C538-425 620-396 682-333L627-256C593-305 538-335 479-335C412-335 376-291 376-229C376-122 469-62 583-1C716 35 795 135 795 296L795 828Z"  horiz-adv-x="923" vert-adv-y="2048"  />

      
      <glyph glyph-name="uni016F" unicode="&#x016F;" d="M463 886C559 886 639 967 639 1064C639 1161 559 1241 463 1241C365 1241 284 1161 284 1064C284 967 365 886 463 886ZM463 967C409 967 367 1008 367 1064C367 1116 409 1163 463 1163C515 1163 558 1116 558 1064C558 1008 515 967 463 967ZM462-16C666-16 795 91 795 296L795 828L625 828L625 313C625 195 557 146 462 146C367 146 299 195 299 313L299 828L128 828L128 296C128 91 256-16 462-16Z"  horiz-adv-x="923" vert-adv-y="2048"  />

      
      <glyph glyph-name="uni76" unicode="&#x76;" d="M652 828L422 190L191 828L7 828L339 0L502 0L835 828Z"  horiz-adv-x="843" vert-adv-y="2048"  />

      
      <glyph glyph-name="uni77" unicode="&#x77;" d="M1165 828L972 193L762 828L612 828L402 193L211 828L17 828L302 0L487 0L687 593L887 0L1071 0L1354 828Z"  horiz-adv-x="1372" vert-adv-y="2048"  />

      
      <glyph glyph-name="uni1E83" unicode="&#x1E83;" d="M988 1219L809 1219L631 929L741 929ZM1165 828L972 193L762 828L612 828L402 193L211 828L17 828L302 0L487 0L687 593L887 0L1071 0L1354 828Z"  horiz-adv-x="1372" vert-adv-y="2048"  />

      
      <glyph glyph-name="uni0175" unicode="&#x0175;" d="M688 1129L810 929L936 929L764 1219L607 1219L437 929L563 929ZM1165 828L972 193L762 828L612 828L402 193L211 828L17 828L302 0L487 0L687 593L887 0L1071 0L1354 828Z"  horiz-adv-x="1372" vert-adv-y="2048"  />

      
      <glyph glyph-name="uni1E85" unicode="&#x1E85;" d="M520 1047C579 1047 629 1096 629 1154C629 1215 579 1262 520 1262C462 1262 412 1215 412 1154C412 1096 462 1047 520 1047ZM852 1047C910 1047 960 1096 960 1154C960 1215 910 1262 852 1262C793 1262 744 1215 744 1154C744 1096 793 1047 852 1047ZM1165 828L972 193L762 828L612 828L402 193L211 828L17 828L302 0L487 0L687 593L887 0L1071 0L1354 828Z"  horiz-adv-x="1372" vert-adv-y="2048"  />

      
      <glyph glyph-name="uni1E81" unicode="&#x1E81;" d="M741 929L563 1219L384 1219L631 929ZM1165 828L972 193L762 828L612 828L402 193L211 828L17 828L302 0L487 0L687 593L887 0L1071 0L1354 828Z"  horiz-adv-x="1372" vert-adv-y="2048"  />

      
      <glyph glyph-name="uni78" unicode="&#x78;" d="M904 828L698 828L454 537L210 828L5 828L352 414L5 0L212 0L455 291L698 0L904 0L558 413Z"  horiz-adv-x="909" vert-adv-y="2048"  />

      
      <glyph glyph-name="uni79" unicode="&#x79;" d="M676 828L438 191L191 828L6 828L347-11L150-497L332-497L497-86L862 828Z"  horiz-adv-x="870" vert-adv-y="2048"  />

      
      <glyph glyph-name="unifd" unicode="&#xfd;" d="M736 1219L557 1219L379 929L489 929ZM676 828L438 191L191 828L6 828L347-11L150-497L332-497L497-86L862 828Z"  horiz-adv-x="870" vert-adv-y="2048"  />

      
      <glyph glyph-name="uni0177" unicode="&#x0177;" d="M436 1129L558 929L684 929L512 1219L355 1219L185 929L311 929ZM676 828L438 191L191 828L6 828L347-11L150-497L332-497L497-86L862 828Z"  horiz-adv-x="870" vert-adv-y="2048"  />

      
      <glyph glyph-name="uniff" unicode="&#xff;" d="M268 1047C327 1047 377 1096 377 1154C377 1215 327 1262 268 1262C210 1262 160 1215 160 1154C160 1096 210 1047 268 1047ZM600 1047C658 1047 708 1096 708 1154C708 1215 658 1262 600 1262C541 1262 492 1215 492 1154C492 1096 541 1047 600 1047ZM676 828L438 191L191 828L6 828L347-11L150-497L332-497L497-86L862 828Z"  horiz-adv-x="870" vert-adv-y="2048"  />

      
      <glyph glyph-name="uni1EF3" unicode="&#x1EF3;" d="M489 929L311 1219L132 1219L379 929ZM676 828L438 191L191 828L6 828L347-11L150-497L332-497L497-86L862 828Z"  horiz-adv-x="870" vert-adv-y="2048"  />

      
      <glyph glyph-name="uni7a" unicode="&#x7a;" d="M756 828L68 828L68 669L463 669L32 0L750 0L750 158L322 158Z"  horiz-adv-x="801" vert-adv-y="2048"  />

      
      <glyph glyph-name="uni017A" unicode="&#x017A;" d="M701 1219L522 1219L344 929L454 929ZM756 828L68 828L68 669L463 669L32 0L750 0L750 158L322 158Z"  horiz-adv-x="801" vert-adv-y="2048"  />

      
      <glyph glyph-name="uni017E" unicode="&#x017E;" d="M477 929L648 1219L522 1219L399 1020L275 1219L150 1219L319 929ZM756 828L68 828L68 669L463 669L32 0L750 0L750 158L322 158Z"  horiz-adv-x="801" vert-adv-y="2048"  />

      
      <glyph glyph-name="uni017C" unicode="&#x017C;" d="M399 1047C458 1047 508 1096 508 1154C508 1215 458 1262 399 1262C341 1262 291 1215 291 1154C291 1096 341 1047 399 1047ZM756 828L68 828L68 669L463 669L32 0L750 0L750 158L322 158Z"  horiz-adv-x="801" vert-adv-y="2048"  />

      
      <glyph glyph-name="uniFB01" unicode="&#xFB01;" d="M353 1232C353 1305 406 1353 468 1353L564 1353L564 1486C542 1500 494 1512 447 1512C304 1512 183 1398 183 1254L183 828L44 828L44 676L183 676L183 0L353 0L353 676L568 676L568 828L353 828ZM806 1047C865 1047 915 1096 915 1154C915 1215 865 1262 806 1262C748 1262 698 1215 698 1154C698 1096 748 1047 806 1047ZM720 0L891 0L891 828L720 828Z"  horiz-adv-x="1036" vert-adv-y="2048"  />

      
      <glyph glyph-name="uniFB02" unicode="&#xFB02;" d="M353 1232C353 1305 406 1353 468 1353L564 1353L564 1486C542 1500 494 1512 447 1512C304 1512 183 1398 183 1254L183 828L44 828L44 676L183 676L183 0L353 0L353 676L568 676L568 828L353 828ZM720 1495L720 0L891 0L891 1495Z"  horiz-adv-x="1037" vert-adv-y="2048"  />

      
      <glyph glyph-name="uniaa" unicode="&#xaa;" d="M565 1219L565 1121C524 1186 454 1229 370 1229C236 1229 125 1115 125 975C125 834 236 722 370 722C454 722 524 764 565 829L565 731L651 731L651 1219ZM386 796C288 796 210 876 210 975C210 1072 288 1152 386 1152C486 1152 565 1072 565 975C565 876 486 796 386 796Z"  horiz-adv-x="826" vert-adv-y="2048"  />

      
      <glyph glyph-name="uniba" unicode="&#xba;" d="M355 722C502 722 620 834 620 975C620 1115 502 1229 355 1229C210 1229 93 1115 93 975C93 834 210 722 355 722ZM355 796C257 796 179 876 179 975C179 1072 257 1152 355 1152C454 1152 534 1072 534 975C534 876 454 796 355 796Z"  horiz-adv-x="713" vert-adv-y="2048"  />

      
      <glyph glyph-name="uni0394" unicode="&#x0394;" d="M704 1219L513 1219L24 0L1194 0ZM268 150L610 1027L949 150Z"  horiz-adv-x="1218" vert-adv-y="2048"  />

      
      <glyph glyph-name="uni03A9" unicode="&#x03A9;" d="M101 0L589 0L589 95C443 169 298 363 298 617C298 884 470 1091 729 1091C998 1091 1148 856 1148 619C1148 359 1007 175 856 95L856 0L1345 0L1345 129L1088 129L1088 139C1206 232 1318 426 1318 646C1318 946 1094 1222 728 1222C375 1222 127 970 127 644C127 418 240 234 354 139L354 129L101 129Z"  horiz-adv-x="1445" vert-adv-y="2048"  />

      
      <glyph glyph-name="uni03BC" unicode="&#x03BC;" d="M715 813L715 327C715 218 622 129 508 129C398 129 309 218 309 327L309 813L144 813L144-406L268-406L268 50C322 9 389-16 462-16C564-16 655 33 715 111L715 0L879 0L879 813Z"  horiz-adv-x="1024" vert-adv-y="2048"  />

      
      <glyph glyph-name="uni03C0" unicode="&#x03C0;" d="M109 0L261 0C332 159 390 550 401 766L755 765L755 250C755 125 763 36 785 0L938 0C921 55 911 132 911 265L911 765L1070 765L1083 889L288 889C138 889 53 869 5 839L22 742C67 758 128 765 246 765C236 528 177 182 109 0Z"  horiz-adv-x="1086" vert-adv-y="2048"  />

      
      <glyph glyph-name="uni30" unicode="&#x30;" d="M528-16C817-16 972 248 972 610C972 971 817 1235 528 1235C239 1235 84 971 84 610C84 248 239-16 528-16ZM530 148C343 148 259 337 259 610C259 882 343 1071 530 1071C715 1071 799 882 799 610C799 337 715 148 530 148Z"  horiz-adv-x="1056" vert-adv-y="2048"  />

      
      <glyph glyph-name="uni31" unicode="&#x31;" d="M475 0L648 0L648 1219L277 1219L277 1055L475 1055Z"  horiz-adv-x="1056" vert-adv-y="2048"  />

      
      <glyph glyph-name="uni32" unicode="&#x32;" d="M417 164L682 470C860 676 914 755 910 897C905 1106 746 1236 546 1237C331 1239 153 1088 162 867L341 867C335 995 424 1073 537 1072C636 1071 732 1014 732 875C732 794 697 736 557 576L59 0L944 0L944 164Z"  horiz-adv-x="1056" vert-adv-y="2048"  />

      
      <glyph glyph-name="uni33" unicode="&#x33;" d="M517 724L512 724L901 1219L172 1219L172 1056L581 1056L210 572L518 572C652 572 742 489 742 371C742 248 649 150 526 150C413 150 317 233 317 340L140 338C140 141 312-16 526-16C746-16 917 153 917 366C917 582 739 730 517 724Z"  horiz-adv-x="1056" vert-adv-y="2048"  />

      
      <glyph glyph-name="uni34" unicode="&#x34;" d="M946 421L827 421L827 1219L610 1219L69 257L654 257L654 0L827 0L827 257L946 257ZM314 421L654 1039L654 421Z"  horiz-adv-x="1056" vert-adv-y="2048"  />

      
      <glyph glyph-name="uni35" unicode="&#x35;" d="M565 813C477 813 398 786 336 739L373 1052L878 1052L878 1216L227 1216L163 641L306 554C361 613 443 648 526 648C667 648 779 546 779 399C779 259 678 151 504 151C387 151 247 191 149 328L127 328L109 141C194 46 357-16 510-16C777-16 952 161 952 404C952 639 791 813 565 813Z"  horiz-adv-x="1056" vert-adv-y="2048"  />

      
      <glyph glyph-name="uni36" unicode="&#x36;" d="M963 417C956 652 753 812 563 820C543 820 524 819 508 816L821 1219L610 1219L194 677C133 596 88 504 92 392C99 157 301-22 540-14C777-6 969 182 963 417ZM539 146C380 140 269 243 262 393C254 546 360 667 515 674C669 681 787 572 794 416C801 267 696 152 539 146Z"  horiz-adv-x="1056" vert-adv-y="2048"  />

      
      <glyph glyph-name="uni37" unicode="&#x37;" d="M124 1219L124 1055L733 1055L143 0L338 0L945 1099L945 1219Z"  horiz-adv-x="1056" vert-adv-y="2048"  />

      
      <glyph glyph-name="uni38" unicode="&#x38;" d="M527-16C758-16 931 147 931 358C931 499 852 618 730 678C810 732 860 820 860 925C860 1100 718 1235 529 1235C338 1235 196 1100 196 925C196 820 246 732 326 678C205 618 125 499 125 358C125 147 300-16 527-16ZM529 726C428 726 350 804 350 903C350 1004 428 1082 529 1082C628 1082 706 1004 706 903C706 804 628 726 529 726ZM527 136C399 136 300 242 300 370C300 500 399 599 527 599C657 599 756 500 756 370C756 242 657 136 527 136Z"  horiz-adv-x="1056" vert-adv-y="2048"  />

      
      <glyph glyph-name="uni39" unicode="&#x39;" d="M963 827C956 1061 756 1241 516 1233C277 1224 86 1037 92 802C99 566 303 407 492 399C512 399 531 400 548 404L235 0L444 0L862 542C923 623 967 719 963 827ZM540 545C384 538 267 648 261 803C254 952 359 1065 516 1073C671 1080 785 974 792 827C800 671 695 552 540 545Z"  horiz-adv-x="1056" vert-adv-y="2048"  />

      
      <glyph glyph-name="unib9" unicode="&#xb9;" d="M142 522L260 522L260 1219L32 1219L32 1110L142 1110Z"  horiz-adv-x="377" vert-adv-y="2048"  />

      
      <glyph glyph-name="unib2" unicode="&#xb2;" d="M228 631L363 791C451 894 489 942 489 1030C489 1150 398 1229 279 1229C158 1229 49 1144 54 1012L171 1011C169 1079 216 1120 274 1120C321 1120 371 1091 371 1021C371 979 352 949 278 860L-2 522L506 522L506 631Z"  horiz-adv-x="567" vert-adv-y="2048"  />

      
      <glyph glyph-name="unib3" unicode="&#xb3;" d="M291 936L511 1219L64 1219L64 1110L303 1110L98 841L279 841C354 841 398 797 398 736C398 674 352 621 287 621C233 621 184 662 184 719L64 718C64 603 167 512 287 512C416 512 515 612 515 735C515 857 420 938 291 936Z"  horiz-adv-x="567" vert-adv-y="2048"  />

      
      <glyph glyph-name="uni2044" unicode="&#x2044;" d="M-250 0L-119 0L731 1219L601 1219Z"  horiz-adv-x="481" vert-adv-y="2048"  />

      
      <glyph glyph-name="unibd" unicode="&#xbd;" d="M301 406L301 1219L56 1219L56 1111L188 1111L188 406ZM1081 1218L230-1L361-1L1211 1218ZM1146 107L1325 313C1444 451 1480 505 1477 598C1474 735 1369 824 1235 824C1091 825 973 725 979 579L1096 578C1093 664 1152 717 1230 717C1299 716 1361 675 1361 583C1361 532 1344 497 1243 383L910-1L1501-1L1501 107Z"  horiz-adv-x="1578" vert-adv-y="2048"  />

      
      <glyph glyph-name="unibc" unicode="&#xbc;" d="M301 406L301 1219L55 1219L55 1111L188 1111L188 406ZM1131 1216L280-3L412-3L1262 1216ZM1461 279L1381 279L1381 813L1240 813L878 171L1269 171L1269 0L1381 0L1381 171L1461 171ZM1038 279L1269 697L1269 279Z"  horiz-adv-x="1549" vert-adv-y="2048"  />

      
      <glyph glyph-name="unibe" unicode="&#xbe;" d="M593 655C593 798 475 897 328 894L323 894L582 1224L98 1224L98 1117L373 1117L124 794L329 794C419 794 480 737 480 658C480 575 417 509 334 509C257 509 192 565 192 638L77 636C77 505 191 400 334 400C479 400 593 513 593 655ZM1270 1216L419-3L551-3L1401 1216ZM1613 279L1534 279L1534 813L1392 813L1030 171L1421 171L1421 0L1534 0L1534 171L1613 171ZM1191 279L1421 695L1421 279Z"  horiz-adv-x="1700" vert-adv-y="2048"  />

      
      <glyph glyph-name="uni2e" unicode="&#x2e;" d="M302-16C369-16 427 41 427 109C427 176 369 234 302 234C234 234 177 176 177 109C177 41 234-16 302-16Z"  horiz-adv-x="604" vert-adv-y="2048"  />

      
      <glyph glyph-name="uni2c" unicode="&#x2c;" d="M101-259L225-259L485 207L308 207Z"  horiz-adv-x="568" vert-adv-y="2048"  />

      
      <glyph glyph-name="uni3a" unicode="&#x3a;" d="M267 621C323 621 371 668 371 725C371 781 323 829 267 829C212 829 163 781 163 725C163 668 212 621 267 621ZM267-16C323-16 371 30 371 88C371 144 323 192 267 192C212 192 163 144 163 88C163 30 212-16 267-16Z"  horiz-adv-x="535" vert-adv-y="2048"  />

      
      <glyph glyph-name="uni3b" unicode="&#x3b;" d="M338 621C394 621 442 668 442 725C442 781 394 829 338 829C281 829 234 781 234 725C234 668 281 621 338 621ZM50-259L174-259L434 207L257 207Z"  horiz-adv-x="574" vert-adv-y="2048"  />

      
      <glyph glyph-name="uni2026" unicode="&#x2026;" d="M302-16C369-16 427 41 427 109C427 176 369 234 302 234C234 234 177 176 177 109C177 41 234-16 302-16ZM772-16C839-16 897 41 897 109C897 176 839 234 772 234C704 234 647 176 647 109C647 41 704-16 772-16ZM1250-16C1318-16 1375 41 1375 109C1375 176 1318 234 1250 234C1183 234 1125 176 1125 109C1125 41 1183-16 1250-16Z"  horiz-adv-x="1553" vert-adv-y="2048"  />

      
      <glyph glyph-name="uni21" unicode="&#x21;" d="M199 369L327 369L346 1219L181 1219ZM264-16C320-16 368 32 368 88C368 146 320 192 264 192C208 192 160 146 160 88C160 32 208-16 264-16Z"  horiz-adv-x="539" vert-adv-y="2048"  />

      
      <glyph glyph-name="unia1" unicode="&#xa1;" d="M275 636C331 636 379 683 379 740C379 797 331 844 275 844C219 844 171 797 171 740C171 683 219 636 275 636ZM193-391L358-391L340 459L212 459Z"  horiz-adv-x="551" vert-adv-y="2048"  />

      
      <glyph glyph-name="uni3f" unicode="&#x3f;" d="M356 348L506 348L506 463C506 641 796 567 796 889C796 1087 640 1235 430 1235C220 1235 65 1083 65 883C65 866 66 847 68 830L215 830C212 846 212 861 212 877C212 999 303 1091 430 1091C557 1091 651 1006 651 889C651 628 356 762 356 449ZM437-16C494-16 541 30 541 88C541 145 494 192 437 192C380 192 332 145 332 88C332 30 380-16 437-16Z"  horiz-adv-x="873" vert-adv-y="2048"  />

      
      <glyph glyph-name="unibf" unicode="&#xbf;" d="M436 636C493 636 541 683 541 740C541 798 493 844 436 844C379 844 332 798 332 740C332 683 379 636 436 636ZM443-407C653-407 808-255 808-55C808-38 807-19 805-2L658-2C661-18 661-33 661-49C661-171 570-263 443-263C316-263 222-177 222-61C222 200 517 66 517 380L517 480L367 480L367 365C367 187 77 261 77-61C77-259 233-407 443-407Z"  horiz-adv-x="873" vert-adv-y="2048"  />

      
      <glyph glyph-name="unib7" unicode="&#xb7;" d="M297 468C358 468 416 518 416 585C416 648 358 703 297 703C233 703 179 648 179 585C179 518 233 468 297 468Z"  horiz-adv-x="594" vert-adv-y="2048"  />

      
      <glyph glyph-name="uni2022" unicode="&#x2022;" d="M440 243C597 243 735 373 735 538C735 699 597 835 440 835C280 835 143 699 143 538C143 373 280 243 440 243Z"  horiz-adv-x="879" vert-adv-y="2048"  />

      
      <glyph glyph-name="uni2a" unicode="&#x2a;" d="M294 842L357 978L421 842L499 887L409 1010L561 995L561 1083L409 1068L499 1191L421 1237L357 1100L294 1237L217 1191L306 1068L154 1083L154 995L306 1010L217 887Z"  horiz-adv-x="715" vert-adv-y="2048"  />

      
      <glyph glyph-name="uni23" unicode="&#x23;" d="M275 0L401 0L442 294L756 294L715 0L838 0L883 294L1124 294L1140 420L899 420L953 798L1193 798L1214 922L970 922L1011 1219L887 1219L844 922L533 922L573 1219L450 1219L406 922L169 922L148 798L392 798L334 420L94 420L76 294L318 294ZM461 420L514 798L828 798L774 420Z"  horiz-adv-x="1289" vert-adv-y="2048"  />

      
      <glyph glyph-name="uni2f" unicode="&#x2f;" d="M-33-488L126-488L1150 1469L992 1469Z"  horiz-adv-x="1117" vert-adv-y="2048"  />

      
      <glyph glyph-name="uni5c" unicode="&#x5c;" d="M992-488L1150-488L126 1469L-33 1469Z"  horiz-adv-x="1117" vert-adv-y="2048"  />

      
      <glyph glyph-name="uni28" unicode="&#x28;" d="M553-481L553-362C383-344 248-118 248 497C248 1116 383 1344 553 1362L553 1481C301 1467 103 1201 103 497C103-206 301-468 553-481Z"  horiz-adv-x="574" vert-adv-y="2048"  />

      
      <glyph glyph-name="uni29" unicode="&#x29;" d="M21-481C273-468 471-206 471 497C471 1201 273 1467 21 1481L21 1362C192 1344 326 1116 326 497C326-118 192-344 21-362Z"  horiz-adv-x="574" vert-adv-y="2048"  />

      
      <glyph glyph-name="uni7b" unicode="&#x7b;" d="M358-437L444-437L444-324C336-324 310-291 310-208L310 227C310 350 293 448 205 518C293 589 310 685 310 809L310 1235C310 1341 342 1359 444 1359L444 1472L358 1472C257 1472 182 1379 182 1250L182 833C182 679 167 623 60 571L60 465C166 414 182 361 182 203L182-217C182-344 257-437 358-437Z"  horiz-adv-x="504" vert-adv-y="2048"  />

      
      <glyph glyph-name="uni7d" unicode="&#x7d;" d="M60-437L146-437C247-437 322-344 322-217L322 203C322 361 338 414 444 465L444 571C337 623 322 679 322 833L322 1250C322 1379 247 1472 146 1472L60 1472L60 1359C162 1359 193 1341 193 1235L193 809C193 685 210 589 299 518C210 448 193 350 193 227L193-208C193-291 168-324 60-324Z"  horiz-adv-x="504" vert-adv-y="2048"  />

      
      <glyph glyph-name="uni5b" unicode="&#x5b;" d="M175-406L529-406L529-294L319-294L319 1368L529 1368L529 1480L175 1480Z"  horiz-adv-x="550" vert-adv-y="2048"  />

      
      <glyph glyph-name="uni5d" unicode="&#x5d;" d="M22-406L375-406L375 1480L22 1480L22 1368L231 1368L231-294L22-294Z"  horiz-adv-x="550" vert-adv-y="2048"  />

      
      <glyph glyph-name="uni2d" unicode="&#x2d;" d="M145 352L714 352L714 494L145 494Z"  horiz-adv-x="859" vert-adv-y="2048"  />

      
      <glyph glyph-name="uniad" unicode="&#xad;" d="M145 352L714 352L714 494L145 494Z"  horiz-adv-x="859" vert-adv-y="2048"  />

      
      <glyph glyph-name="uni2013" unicode="&#x2013;" d="M145 352L958 352L958 494L145 494Z"  horiz-adv-x="1103" vert-adv-y="2048"  />

      
      <glyph glyph-name="uni2014" unicode="&#x2014;" d="M145 352L1770 352L1770 494L145 494Z"  horiz-adv-x="1915" vert-adv-y="2048"  />

      
      <glyph glyph-name="uni5f" unicode="&#x5f;" d="M145-142L1120-142L1120 0L145 0Z"  horiz-adv-x="1265" vert-adv-y="2048"  />

      
      <glyph glyph-name="uni201A" unicode="&#x201A;" d="M73-259L197-259L457 207L279 207Z"  horiz-adv-x="511" vert-adv-y="2048"  />

      
      <glyph glyph-name="uni201E" unicode="&#x201E;" d="M73-259L203-259L463 207L279 207ZM370-259L500-259L760 207L577 207Z"  horiz-adv-x="814" vert-adv-y="2048"  />

      
      <glyph glyph-name="uni201C" unicode="&#x201C;" d="M53 754L237 754L444 1219L313 1219ZM351 754L534 754L742 1219L611 1219Z"  horiz-adv-x="814" vert-adv-y="2048"  />

      
      <glyph glyph-name="uni201D" unicode="&#x201D;" d="M72 754L203 754L463 1219L278 1219ZM369 754L500 754L760 1219L576 1219Z"  horiz-adv-x="813" vert-adv-y="2048"  />

      
      <glyph glyph-name="uni2018" unicode="&#x2018;" d="M53 754L237 754L444 1219L313 1219Z"  horiz-adv-x="516" vert-adv-y="2048"  />

      
      <glyph glyph-name="uni2019" unicode="&#x2019;" d="M72 754L203 754L463 1219L278 1219Z"  horiz-adv-x="516" vert-adv-y="2048"  />

      
      <glyph glyph-name="uniab" unicode="&#xab;" d="M303 154L439 154L192 453L439 753L303 753L56 453ZM625 154L764 154L517 453L764 753L625 753L378 453Z"  horiz-adv-x="822" vert-adv-y="2048"  />

      
      <glyph glyph-name="unibb" unicode="&#xbb;" d="M58 154L195 154L442 453L195 753L58 753L305 453ZM380 154L519 154L766 453L519 753L380 753L627 453Z"  horiz-adv-x="822" vert-adv-y="2048"  />

      
      <glyph glyph-name="uni2039" unicode="&#x2039;" d="M303 154L439 154L192 453L439 753L303 753L56 453Z"  horiz-adv-x="497" vert-adv-y="2048"  />

      
      <glyph glyph-name="uni203A" unicode="&#x203A;" d="M58 154L195 154L442 453L195 753L58 753L305 453Z"  horiz-adv-x="497" vert-adv-y="2048"  />

      
      <glyph glyph-name="uni22" unicode="&#x22;" d="M184 690L302 690L321 1235L165 1235ZM476 690L596 690L614 1235L457 1235Z"  horiz-adv-x="779" vert-adv-y="2048"  />

      
      <glyph glyph-name="uni27" unicode="&#x27;" d="M184 755L302 755L321 1235L165 1235Z"  horiz-adv-x="486" vert-adv-y="2048"  />

      
      <glyph glyph-name="unia2" unicode="&#xa2;" d="M562 846C639 846 716 822 771 774L771 937C714 969 649 988 580 991L580 1139L478 1139L478 983C274 946 121 776 121 569C121 362 274 191 478 154L478-2L580-2L580 146C649 149 715 169 771 201L771 365C717 316 639 292 562 292C408 292 286 415 286 569C286 723 408 846 562 846Z"  horiz-adv-x="929" vert-adv-y="2048"  />

      
      <glyph glyph-name="unia4" unicode="&#xa4;" d="M281 205L365 291C489 200 661 200 785 291L869 205L959 299L876 380C966 504 966 676 876 800L959 883L868 972L785 889C661 980 491 979 367 888L283 973L194 879L276 799C187 676 187 504 276 381L192 299ZM403 421C311 512 313 666 404 758C500 853 650 853 744 759C840 667 839 514 746 421C651 324 500 326 403 421Z"  horiz-adv-x="1152" vert-adv-y="2048"  />

      
      <glyph glyph-name="uni24" unicode="&#x24;" d="M905 332C905 748 324 651 324 917C324 1020 407 1072 507 1072C602 1072 677 1026 740 947L859 1058C803 1137 711 1201 601 1225L601 1359L444 1359L444 1231C280 1207 152 1089 152 904C152 510 734 601 734 326C734 215 642 151 519 151C391 151 294 221 252 329L103 238C162 107 288 12 444-11L444-137L601-137L601-9C776 20 905 142 905 332Z"  horiz-adv-x="1016" vert-adv-y="2048"  />

      
      <glyph glyph-name="uni20AC" unicode="&#x20AC;" d="M853 145C666 145 508 251 434 408L940 408L979 533L395 533C391 558 389 584 389 610C389 633 391 657 394 679L1024 679L1063 804L430 804C503 965 663 1074 853 1074C947 1074 1044 1042 1120 987L1170 1144C1073 1202 958 1235 853 1235C572 1235 338 1056 257 804L123 804L123 679L231 679C228 656 227 633 227 610C227 584 229 558 232 533L123 533L123 408L260 408C342 160 575-16 853-16C960-16 1077 20 1174 77L1174 276C1091 196 970 145 853 145Z"  horiz-adv-x="1318" vert-adv-y="2048"  />

      
      <glyph glyph-name="uni0192" unicode="&#x0192;" d="M658 1114C685 1114 719 1105 739 1087L754 1207C735 1221 689 1235 642 1235C504 1235 374 1128 351 987L324 813L187 813L168 686L304 686L132-406L280-406L453 686L679 686L698 813L474 813L498 967C513 1054 575 1114 658 1114Z"  horiz-adv-x="836" vert-adv-y="2048"  />

      
      <glyph glyph-name="unia3" unicode="&#xa3;" d="M371 119L371 540L673 540L673 651L371 651L371 854C371 1007 468 1107 616 1107C725 1107 829 1025 845 914L968 967C927 1122 774 1235 616 1235C398 1235 244 1076 244 854L244 651L114 651L114 540L244 540L244 0L989 0L989 119Z"  horiz-adv-x="1092" vert-adv-y="2048"  />

      
      <glyph glyph-name="unia5" unicode="&#xa5;" d="M654 590L1070 1219L914 1219L580 703L248 1219L91 1219L509 588L509 586L192 586L192 482L509 482L509 329L193 329L193 227L509 227L509 0L654 0L654 227L973 227L973 329L654 329L654 482L973 482L973 586L654 586Z"  horiz-adv-x="1163" vert-adv-y="2048"  />

      
      <glyph glyph-name="uni2b" unicode="&#x2b;" d="M520 0L661 0L661 433L1094 433L1094 575L661 575L661 1008L520 1008L520 575L86 575L86 433L520 433Z"  horiz-adv-x="1179" vert-adv-y="2048"  />

      
      <glyph glyph-name="uni2212" unicode="&#x2212;" d="M218 413L1049 413L1049 554L218 554Z"  horiz-adv-x="1267" vert-adv-y="2048"  />

      
      <glyph glyph-name="unid7" unicode="&#xd7;" d="M917 809L818 911L511 604L203 911L105 809L411 504L105 198L203 97L511 404L818 97L917 198L611 504Z"  horiz-adv-x="1022" vert-adv-y="2048"  />

      
      <glyph glyph-name="unif7" unicode="&#xf7;" d="M579 642C631 642 675 683 675 736C675 787 631 830 579 830C529 830 485 787 485 736C485 683 529 642 579 642ZM92 403L1067 403L1067 491L92 491ZM579 64C631 64 675 105 675 158C675 209 631 252 579 252C529 252 485 209 485 158C485 105 529 64 579 64Z"  horiz-adv-x="1159" vert-adv-y="2048"  />

      
      <glyph glyph-name="uni3d" unicode="&#x3d;" d="M218 533L1193 533L1193 642L218 642ZM218 220L1193 220L1193 329L218 329Z"  horiz-adv-x="1411" vert-adv-y="2048"  />

      
      <glyph glyph-name="uni2260" unicode="&#x2260;" d="M1135 533L1135 642L893 642L1046 821L945 821L792 642L160 642L160 533L698 533L523 329L160 329L160 220L430 220L249 9L351 9L532 220L1135 220L1135 329L625 329L799 533Z"  horiz-adv-x="1294" vert-adv-y="2048"  />

      
      <glyph glyph-name="uni3e" unicode="&#x3e;" d="M110 1095L110 957L876 570L110 183L110 42L1007 496L1007 645Z"  horiz-adv-x="1091" vert-adv-y="2048"  />

      
      <glyph glyph-name="uni3c" unicode="&#x3c;" d="M981 1095L84 645L84 496L981 42L981 183L215 570L981 957Z"  horiz-adv-x="1091" vert-adv-y="2048"  />

      
      <glyph glyph-name="uni2265" unicode="&#x2265;" d="M131 1141L131 1002L892 655L131 305L131 165L1028 580L1028 729ZM131 0L1028 0L1028 99L131 99Z"  horiz-adv-x="1142" vert-adv-y="2048"  />

      
      <glyph glyph-name="uni2264" unicode="&#x2264;" d="M1011 1141L114 729L114 580L1011 165L1011 305L249 655L1011 1002ZM114 0L1011 0L1011 99L114 99Z"  horiz-adv-x="1142" vert-adv-y="2048"  />

      
      <glyph glyph-name="unib1" unicode="&#xb1;" d="M626 301L754 301L754 594L1255 594L1255 722L754 722L754 1014L626 1014L626 722L125 722L125 594L626 594ZM125 0L1255 0L1255 116L125 116Z"  horiz-adv-x="1381" vert-adv-y="2048"  />

      
      <glyph glyph-name="uni2248" unicode="&#x2248;" d="M754 516C896 516 987 637 983 798L867 798C870 696 817 629 744 629C690 629 659 665 630 701C568 777 514 819 425 819C274 819 176 703 181 532L298 532C296 628 343 702 423 703C465 703 496 679 533 638C576 592 639 516 754 516ZM754 182C896 182 987 303 983 465L867 465C870 361 817 295 744 295C690 295 659 331 630 367C568 443 513 486 425 486C275 486 176 370 181 198L298 198C296 293 343 367 423 368C468 369 497 342 533 304C576 257 639 182 754 182Z"  horiz-adv-x="1165" vert-adv-y="2048"  />

      
      <glyph glyph-name="uni7e" unicode="&#x7e;" d="M753 273C894 273 996 396 983 557L866 557C873 453 816 387 742 387C691 387 660 421 629 460C570 534 514 577 423 577C271 577 170 459 180 290L297 290C294 382 341 460 422 460C465 460 494 438 532 396C574 349 638 273 753 273Z"  horiz-adv-x="1163" vert-adv-y="2048"  />

      
      <glyph glyph-name="uniac" unicode="&#xac;" d="M981 179L1096 179L1096 712L98 712L98 595L981 595Z"  horiz-adv-x="1314" vert-adv-y="2048"  />

      
      <glyph glyph-name="uni5e" unicode="&#x5e;" d="M1117 322L665 1219L516 1219L64 322L204 322L590 1088L976 322Z"  horiz-adv-x="1181" vert-adv-y="2048"  />

      
      <glyph glyph-name="uni2205" unicode="&#x2205;" d="M999 792L1069 862L1021 910L951 840C865 914 754 959 632 959C364 959 146 741 146 473C146 351 191 240 265 154L195 84L244 36L314 106C399 32 510-13 632-13C900-13 1118 205 1118 473C1118 595 1073 706 999 792ZM279 473C279 670 436 826 632 826C718 826 796 796 857 746L359 248C309 309 279 387 279 473ZM632 120C546 120 468 150 407 200L905 698C955 637 985 559 985 473C985 276 829 120 632 120Z"  horiz-adv-x="1264" vert-adv-y="2048"  />

      
      <glyph glyph-name="uni221E" unicode="&#x221E;" d="M404 228C498 228 603 287 702 392C799 286 906 228 999 228C1135 228 1228 325 1233 473C1228 621 1135 718 999 718C906 718 799 660 702 554C603 659 498 718 404 718C273 718 176 614 171 473C176 332 273 228 404 228ZM404 337C338 337 281 396 280 473C281 550 338 609 404 609C469 609 549 560 630 473C549 386 469 337 404 337ZM999 337C933 337 854 386 774 473C854 560 933 609 999 609C1068 609 1121 552 1124 473C1121 394 1068 337 999 337Z"  horiz-adv-x="1406" vert-adv-y="2048"  />

      
      <glyph glyph-name="uni222B" unicode="&#x222B;" d="M176-307C256-307 329-246 342-159L535 1056C540 1083 560 1099 581 1099C612 1099 617 1078 608 1019L708 1019C747 1126 691 1204 600 1204C518 1204 444 1143 430 1056L237-159C233-185 215-201 194-201C162-201 156-181 165-122L65-122C28-228 81-307 176-307Z"  horiz-adv-x="774" vert-adv-y="2048"  />

      
      <glyph glyph-name="uni220F" unicode="&#x220F;" d="M234-195L352-195L352 1025L936 1025L936-195L1053-195L1053 1025L1172 1025L1172 1143L115 1143L115 1025L234 1025Z"  horiz-adv-x="1287" vert-adv-y="2048"  />

      
      <glyph glyph-name="uni2211" unicode="&#x2211;" d="M78-193L1016-193L1016-66L293-66L838 475L293 1016L1016 1016L1016 1143L78 1143L78 1045L664 475L78-96Z"  horiz-adv-x="1104" vert-adv-y="2048"  />

      
      <glyph glyph-name="uni221A" unicode="&#x221A;" d="M358-127L449-127L1084 1199L984 1242L415 53L253 549L64 549L64 440L175 440Z"  horiz-adv-x="1139" vert-adv-y="2048"  />

      
      <glyph glyph-name="unib5" unicode="&#xb5;" d="M790 813L790 325C790 213 695 122 579 122C465 122 374 213 374 325L374 813L218 813L218-406L336-406L336 55C390 10 459-16 535-16C639-16 730 35 790 114L790 0L946 0L946 813Z"  horiz-adv-x="1113" vert-adv-y="2048"  />

      
      <glyph glyph-name="uni2202" unicode="&#x2202;" d="M297 1149L297 1031C459 1082 596 966 653 762C451 842 236 741 144 492C41 217 163 8 428 8C653 8 827 237 828 533C830 923 596 1200 297 1149ZM681 533C679 304 564 117 428 117C279 117 211 272 279 455C359 666 514 733 677 631C680 599 681 567 681 533Z"  horiz-adv-x="968" vert-adv-y="2048"  />

      
      </font>
</defs>
</svg>
